<svg width="42" height="16" viewBox="0 0 42 16" fill="none" xmlns="http://www.w3.org/2000/svg">
<path d="M40.9979 7.51325C40.8079 6.88325 40.4279 6.44325 39.8179 6.25325C36.9879 5.37325 34.1379 4.55325 31.1979 4.13325C30.4379 4.02325 29.6779 3.96325 28.9879 3.54325C28.0079 2.95325 26.9879 2.42325 25.9779 1.88325C23.8979 0.783247 21.7079 0.0932475 19.3379 0.0232475C16.5579 -0.0567525 13.7979 0.0532476 11.0579 0.613248C8.69794 1.10325 6.42793 1.80325 4.42793 3.21325C3.93793 3.56325 3.37793 3.72325 2.76793 3.71325C2.23793 3.70325 1.69793 3.70325 1.16793 3.71325C0.437934 3.72325 0.0679339 4.21325 0.337934 4.89325C0.767934 6.01325 0.727934 7.10325 0.327934 8.21325C0.00793391 9.08325 -0.0520661 9.98325 0.0379339 10.9032C0.177934 12.3232 1.49793 13.5432 2.85793 13.4832C2.39793 10.5732 3.10793 8.57325 5.14793 7.32325C7.11793 6.12325 9.16793 6.10325 11.0779 7.40325C13.2379 8.86325 13.8479 10.9832 13.2579 13.5232C17.9879 13.5232 22.6879 13.5232 27.4079 13.5232C26.8179 10.9832 27.4379 8.86325 29.6079 7.39325C31.4279 6.15325 33.4379 6.09325 35.3179 7.22325C37.7079 8.65325 38.3979 10.8532 37.7979 13.5432C38.2179 13.5432 38.6279 13.5532 39.0279 13.5432C39.9179 13.5232 40.5379 13.1032 40.8879 12.2832C41.5579 10.7032 41.4679 9.11325 40.9979 7.51325ZM12.8679 4.95325C12.1179 4.93325 11.3579 4.87325 10.6079 4.81325C10.4579 4.80325 10.2579 4.75325 10.1579 4.64325C9.70793 4.14325 9.28793 3.62325 8.86793 3.10325C8.87793 3.05325 8.88793 3.00325 8.89793 2.94325C10.0379 2.70325 11.1779 2.41325 12.3179 2.22325C13.2379 2.07325 14.1779 2.03325 15.1079 1.93325C15.3579 1.90325 15.4779 1.96325 15.5279 2.24325C15.7079 3.17325 15.9179 4.09325 16.1079 4.96325C15.0179 4.96325 13.9379 4.97325 12.8679 4.95325ZM26.9079 5.06325C23.9579 5.07325 20.9979 5.07325 18.0379 5.07325C17.9979 5.07325 17.9579 5.06325 17.8779 5.04325C17.6579 3.99325 17.4379 2.93325 17.2079 1.86325C21.0679 1.46325 24.3679 2.83325 27.5879 4.86325C27.3179 4.95325 27.1179 5.06325 26.9079 5.06325Z" fill="#6FC284"/>
<path d="M8.1679 8.18315C6.1179 8.17315 4.4379 9.83315 4.4279 11.8732C4.4179 13.9131 6.0879 15.5831 8.1379 15.5831C10.1979 15.5831 11.8679 13.9232 11.8579 11.8732C11.8579 9.85315 10.1879 8.18315 8.1679 8.18315Z" fill="#6FC284"/>
<path d="M32.8579 8.18326C30.7479 8.13326 29.0179 9.74326 28.9779 11.8133C28.9379 13.8433 30.5579 15.5433 32.5879 15.5833C34.6879 15.6333 36.3479 14.0433 36.3979 11.9433C36.4479 9.96326 34.8179 8.23326 32.8579 8.18326Z" fill="#6FC284"/>
</svg>
