<svg width="39" height="29" viewBox="0 0 39 29" fill="none" xmlns="http://www.w3.org/2000/svg">
<path d="M16.4178 26.6762C16.4178 26.0688 16.4178 25.4967 16.4178 24.8964C16.572 24.8823 16.6772 24.8681 16.7895 24.8681C18.5918 24.8681 20.3942 24.8752 22.1896 24.8611C22.5122 24.8611 22.6033 24.96 22.5893 25.2707C22.5683 25.7157 22.5823 26.1606 22.5823 26.6692C22.7576 26.6692 22.9049 26.6692 23.0522 26.6692C24.3987 26.6692 25.7382 26.6621 27.0847 26.6762C27.6317 26.6833 28.0455 27.0223 28.1788 27.5167C28.305 27.9899 28.1507 28.5126 27.7369 28.7598C27.5125 28.894 27.218 28.9787 26.9515 28.9787C24.5319 28.9928 22.1054 28.9858 19.6859 28.9858C17.1121 28.9858 14.5382 28.9858 11.9644 28.9858C11.3613 28.9858 10.9195 28.6185 10.8002 28.0323C10.695 27.5096 10.9686 26.9658 11.4875 26.768C11.6909 26.6904 11.9294 26.6692 12.1538 26.6692C13.4232 26.6621 14.6925 26.6621 15.9619 26.6621C16.1022 26.6762 16.2354 26.6762 16.4178 26.6762Z" fill="#6FC284"/>
<path d="M39.0001 1.00999C39.0001 7.86093 39.0001 14.7119 39.0001 21.5628C38.7265 22.255 38.2426 22.5869 37.4782 22.5869C25.4998 22.5799 13.5214 22.5728 1.54294 22.5869C0.505 22.5869 5.4282e-05 21.8665 5.4282e-05 21.019C0.0281068 14.5565 0.0281068 8.08695 5.4282e-05 1.62445C-0.00695885 0.579152 0.666301 0 1.60606 0C13.5073 0.0211885 25.4086 0.0211885 37.3099 0C38.1164 0 38.6845 0.254262 39.0001 1.00999Z" fill="#6FC284"/>
</svg>
