<svg width="30" height="33" viewBox="0 0 30 33" fill="none" xmlns="http://www.w3.org/2000/svg">
<path d="M1 7.19971H4.1H28.9" stroke="#FF7474" stroke-width="2" stroke-linecap="round" stroke-linejoin="round"/>
<path d="M25.7999 7.2V28.9C25.7999 29.7222 25.4732 30.5107 24.8919 31.092C24.3105 31.6734 23.522 32 22.6999 32H7.19985C6.37768 32 5.58918 31.6734 5.00782 31.092C4.42646 30.5107 4.09985 29.7222 4.09985 28.9V7.2M8.74985 7.2V4.1C8.74985 3.27783 9.07646 2.48933 9.65782 1.90797C10.2392 1.32661 11.0277 1 11.8499 1H18.0499C18.872 1 19.6605 1.32661 20.2419 1.90797C20.8232 2.48933 21.1499 3.27783 21.1499 4.1V7.2" stroke="#FF7474" stroke-width="2" stroke-linecap="round" stroke-linejoin="round"/>
<path d="M11.8501 14.9497V24.2497" stroke="#FF7474" stroke-width="2" stroke-linecap="round" stroke-linejoin="round"/>
<path d="M18.0498 14.9497V24.2497" stroke="#FF7474" stroke-width="2" stroke-linecap="round" stroke-linejoin="round"/>
</svg>
