<svg width="34" height="34" viewBox="0 0 34 34" fill="none" xmlns="http://www.w3.org/2000/svg">
<path d="M8.31373 33.4555C8.3313 33.2447 8.24346 33.192 8.0502 33.2008C7.76032 33.2183 7.46166 33.192 7.163 33.2095C6.94339 33.2271 6.84676 33.1744 6.86433 32.9284C6.89068 32.6561 6.87312 32.3838 6.87312 32.1115C6.87312 31.5493 6.87312 31.5669 6.30214 31.5581C6.08253 31.5581 6.05618 31.6372 6.05618 31.8216C6.06497 32.2169 6.05618 32.6034 6.06497 32.9987C6.06497 33.1568 6.02104 33.2095 5.86293 33.2095C5.59062 33.2008 5.3183 33.2183 5.04599 33.2008C4.85274 33.192 4.7649 33.2359 4.78247 33.4467C4.80003 33.6312 4.77368 33.8157 4.77368 34.0001C5.95955 34.0001 7.14543 34.0001 8.32252 34.0001C8.32252 33.8244 8.30495 33.64 8.31373 33.4555Z" fill="#6FC284"/>
<path d="M2.28783 21.5879C2.31418 21.8251 2.38445 21.9129 2.64798 21.9129C5.30082 21.9041 7.95366 21.9041 10.6065 21.9041C13.2593 21.9041 15.9122 21.8953 18.565 21.9129C18.8286 21.9129 18.8988 21.8338 18.9252 21.5879C18.9691 21.0433 19.0394 20.4986 19.1009 19.954C19.1975 19.0317 19.3029 18.1093 19.3907 17.1782C19.4347 16.6775 19.1887 16.3173 18.7758 16.0626C18.442 15.8518 18.0731 15.7903 17.6778 15.7903C13.1979 15.7903 8.70911 15.7903 4.22915 15.7903C3.91291 15.7903 3.59668 15.7815 3.27166 15.7991C2.3054 15.843 1.72564 16.5282 1.83983 17.4769C1.98916 18.8472 2.1385 20.2175 2.28783 21.5879Z" fill="#6FC284"/>
<path d="M20.9894 30.179C20.9982 29.3533 20.9982 28.5363 20.9894 27.7106C20.9894 27.289 20.8137 27.1133 20.3833 27.1133C13.9005 27.1133 7.40895 27.1133 0.926176 27.1133C0.486964 27.1133 0.320064 27.289 0.311279 27.737C0.311279 28.5188 0.311279 29.2918 0.311279 30.0736C0.311279 30.6445 0.451827 30.7763 1.03159 30.7763C4.23784 30.7763 7.45287 30.7763 10.6591 30.7763C13.8917 30.7763 17.1243 30.7763 20.3569 30.7763C20.8137 30.7763 20.9894 30.6182 20.9894 30.179Z" fill="#6FC284"/>
<path d="M1.04921 26.3315C4.24668 26.3315 7.44414 26.3315 10.6416 26.3315C13.8215 26.3315 16.9926 26.3315 20.1725 26.3315C20.2779 26.3315 20.3921 26.3315 20.4975 26.3315C20.805 26.3228 20.9631 26.1471 20.9807 25.8572C20.9982 25.6025 20.9807 25.3565 20.9894 25.1018C21.0509 23.5821 19.8563 22.651 18.5826 22.6773C15.8858 22.7212 13.189 22.6949 10.5011 22.6949C7.88335 22.6949 5.26565 22.6949 2.64794 22.6949C1.40058 22.6949 0.530942 23.4327 0.346473 24.6625C0.302552 24.97 0.320121 25.295 0.320121 25.6112C0.311336 26.2086 0.4431 26.3315 1.04921 26.3315Z" fill="#6FC284"/>
<path d="M33.3225 21.7722C28.8952 21.781 24.468 21.781 20.0495 21.781C19.988 21.781 19.9177 21.781 19.8563 21.781C19.7684 21.781 19.6806 21.7634 19.6542 21.8952C19.6279 22.0182 19.7069 22.0445 19.786 22.0797C20.4448 22.3168 20.9455 22.7561 21.3759 23.3446C21.3584 23.1338 21.4198 23.0635 21.6131 23.0635C22.9922 23.0723 24.3714 23.0635 25.7505 23.0723C25.812 23.0723 25.9086 23.0371 25.9262 23.1074C25.9877 23.327 25.9789 23.5642 25.9349 23.7838C25.9086 23.9156 25.7241 23.8453 25.6099 23.8453C24.3626 23.8541 23.1152 23.8453 21.8678 23.8541C21.7712 23.8541 21.5428 23.7662 21.6219 24.0122C21.8151 24.6007 21.7361 25.2069 21.7537 25.8042C21.7624 26.0941 21.7009 26.3752 21.5165 26.6035C21.4374 26.709 21.4286 26.7792 21.5165 26.8759C21.5867 26.9549 21.6395 27.0603 21.6658 27.1657C21.7097 27.3502 21.8151 27.3853 21.9908 27.3853C25.7944 27.3766 29.5892 27.3766 33.3928 27.3853C33.6475 27.3853 33.6914 27.3063 33.6914 27.0691C33.6826 25.4352 33.6739 23.8014 33.6914 22.1763C33.7178 21.8688 33.6563 21.7722 33.3225 21.7722Z" fill="#6FC284"/>
<path d="M33.3401 28.1584C29.6068 28.1672 25.8648 28.1672 22.1315 28.1672C22.0787 28.1672 22.0173 28.176 21.9645 28.1672C21.8064 28.1497 21.7537 28.2287 21.7625 28.3781C21.7713 28.7909 21.7801 29.2126 21.7625 29.6254C21.7537 29.8626 21.8416 29.9153 22.0612 29.9153C23.2031 29.9065 24.3363 29.9065 25.4782 29.9065C25.9614 29.9065 25.9438 29.9065 25.9614 30.3809C25.9702 30.6268 25.9087 30.6883 25.6539 30.6883C24.4241 30.6707 23.2031 30.6795 21.9733 30.6795C21.8504 30.6795 21.7274 30.6532 21.6483 30.8201C21.4551 31.2329 21.1213 31.4877 20.6645 31.5404C20.48 31.5579 20.4712 31.6634 20.4712 31.8039C20.48 32.1728 20.4888 32.5506 20.4712 32.9195C20.4537 33.2006 20.5152 33.306 20.8314 33.2972C22.9132 33.2797 24.9951 33.2884 27.077 33.2884C29.1764 33.2884 31.2846 33.2797 33.3841 33.2972C33.6476 33.2972 33.7091 33.227 33.7091 32.9722C33.7003 31.4965 33.6915 30.0119 33.7091 28.5362C33.7179 28.2463 33.6476 28.1584 33.3401 28.1584Z" fill="#6FC284"/>
<path d="M33.3664 0.330078C29.7649 0.338862 26.1545 0.338862 22.553 0.338862C19.8211 0.338862 17.098 0.347647 14.3661 0.330078C14.085 0.330078 14.0235 0.409136 14.0323 0.672664C14.0499 1.30513 14.0586 1.94638 14.0323 2.57884C14.0235 2.85994 14.1026 2.91265 14.3749 2.91265C17.5284 2.90386 20.682 2.90386 23.8355 2.90386C27.0154 2.90386 30.1865 2.90386 33.3664 2.91265C33.6475 2.91265 33.709 2.84237 33.7002 2.57006C33.6914 1.93759 33.6914 1.29634 33.709 0.663879C33.7266 0.373999 33.6299 0.330078 33.3664 0.330078Z" fill="#6FC284"/>
<path d="M3.62288 7.77035C4.5628 7.76157 5.51149 7.77035 6.45141 7.77035C7.40889 7.77035 8.35759 7.76157 9.31507 7.77913C9.54346 7.77913 9.61374 7.73521 9.5786 7.49804C9.36778 6.09256 9.16574 4.68708 8.9637 3.2816C8.93735 3.10592 8.87586 3.03564 8.67382 3.03564C7.20685 3.04443 5.73989 3.04443 4.27292 3.03564C4.07966 3.03564 4.01817 3.08835 3.99182 3.2816C3.79857 4.68708 3.60531 6.09256 3.37692 7.49804C3.32422 7.78792 3.42963 7.77035 3.62288 7.77035Z" fill="#6FC284"/>
<path d="M17.054 31.5581C16.3249 31.5669 15.587 31.5581 14.8492 31.5669C14.5944 31.5669 14.2343 31.4527 14.0937 31.6196C13.9619 31.7778 14.041 32.1203 14.041 32.3751C14.041 32.665 13.9356 33.0603 14.0849 33.2272C14.2606 33.4204 14.6559 33.2886 14.9633 33.2886C15.9033 33.2974 16.8432 33.2886 17.8182 33.2886C17.6513 32.7704 17.4932 32.2872 17.3527 31.7953C17.3175 31.6196 17.2385 31.5581 17.054 31.5581Z" fill="#6FC284"/>
<path d="M6.60956 15.0085C6.82039 15.0085 6.88188 14.9646 6.88188 14.745C6.87309 13.6909 6.87309 12.6455 6.87309 11.5914C6.87309 10.5285 6.87309 9.46564 6.87309 8.40274C6.87309 8.21828 6.82917 8.13922 6.63592 8.16557C6.54807 8.17435 6.46023 8.17435 6.37239 8.16557C6.13522 8.12165 6.06494 8.20949 6.06494 8.47302C6.07373 10.467 6.07373 12.4611 6.07373 14.4551C6.07373 15.0085 6.07373 14.9997 6.60956 15.0085Z" fill="#6FC284"/>
<path d="M19.6981 31.7601C19.6981 31.6284 19.6805 31.5581 19.5224 31.5581C19.0656 31.5669 18.6089 31.5581 18.1169 31.5581C18.2136 31.8743 18.3014 32.1642 18.398 32.4453C18.644 33.2359 18.644 33.2359 19.4697 33.2008C19.4785 33.2008 19.4961 33.2008 19.5049 33.2008C19.663 33.2271 19.7069 33.1481 19.7069 32.9899C19.6893 32.5946 19.6893 32.1818 19.6981 31.7601Z" fill="#6FC284"/>
<path d="M2.06814 31.5669C1.9188 31.5669 1.88367 31.6196 1.88367 31.7601C1.89245 32.1906 1.89245 32.6122 1.88367 33.0426C1.88367 33.192 1.93637 33.2271 2.07692 33.2271C2.30531 33.2183 2.5337 33.2183 2.76209 33.2271C2.88507 33.2271 2.96413 33.2008 2.99927 33.069C3.13981 32.5771 3.29793 32.0939 3.45605 31.5757C2.9817 31.5669 2.52492 31.5757 2.06814 31.5669Z" fill="#6FC284"/>
<path d="M24.5733 20.9995C27.5072 20.9908 30.45 20.9908 33.3839 20.9995C33.6299 20.9995 33.7089 20.9468 33.7089 20.6833C33.7001 15.1317 33.7001 9.57124 33.7089 4.0196C33.7089 3.75607 33.6386 3.69458 33.3839 3.69458C30.45 3.70336 27.5072 3.70336 24.5733 3.69458C24.3186 3.69458 24.2483 3.75607 24.2483 4.0196C24.2571 6.79542 24.2571 9.56245 24.2571 12.3383C24.2571 15.1229 24.2571 17.9075 24.2483 20.6921C24.2483 20.9468 24.3273 20.9995 24.5733 20.9995ZM26.4004 9.99288C26.9363 10.0017 26.9363 9.99288 26.9363 10.5375C26.9363 11.2227 26.9275 11.9166 26.9451 12.6018C26.9538 12.839 26.8836 12.918 26.6552 12.8829C26.5585 12.8653 26.4619 12.8741 26.3653 12.8829C26.1808 12.9092 26.1457 12.8214 26.1545 12.6545C26.1633 12.2504 26.1545 11.8464 26.1545 11.4423C26.1545 11.0382 26.172 10.6341 26.1457 10.2301C26.1369 10.028 26.2072 9.99288 26.4004 9.99288Z" fill="#6FC284"/>
<path d="M23.4664 3.98446C23.4664 3.81755 23.4927 3.68579 23.2292 3.68579C20.2514 3.69458 17.2647 3.69458 14.2869 3.68579C14.1112 3.68579 14.0409 3.72093 14.0409 3.91418C14.0497 7.53329 14.0497 11.1436 14.0409 14.7627C14.0409 14.9472 14.0936 14.9999 14.2781 14.9999C15.0774 14.9911 15.8768 14.9911 16.6762 14.9999C17.2208 15.0087 17.7742 14.956 18.3188 15.0526C19.5398 15.2722 20.3041 16.2912 20.1547 17.4771C20.0142 18.5487 19.9088 19.6292 19.777 20.7009C19.7506 20.938 19.8209 20.9907 20.0493 20.9907C21.0771 20.982 22.1136 20.9732 23.1414 20.9907C23.4225 20.9995 23.4752 20.9205 23.4752 20.6482C23.4664 17.8899 23.4664 15.1229 23.4664 12.3646C23.4664 9.58002 23.4664 6.78663 23.4664 3.98446ZM21.5075 12.8829C21.446 12.8741 21.3757 12.8741 21.3142 12.8829C21.0595 12.918 20.9804 12.8302 20.9804 12.5667C20.998 11.8112 20.998 11.0558 20.9804 10.3003C20.9804 10.0719 21.0068 9.97531 21.2791 9.98409C21.7622 10.0104 21.7622 9.98409 21.7622 10.4672C21.7622 10.7835 21.7622 11.0997 21.7622 11.4159C21.7622 11.82 21.7535 12.2241 21.771 12.6281C21.7798 12.839 21.7095 12.918 21.5075 12.8829Z" fill="#6FC284"/>
</svg>
