<svg width="33" height="34" viewBox="0 0 33 34" fill="none" xmlns="http://www.w3.org/2000/svg">
<path d="M31.7334 23.4548C31.4421 23.4548 31.2032 23.6879 31.2032 23.9792C31.2032 24.2705 31.4421 24.5035 31.7334 24.5035C32.0247 24.5035 32.2636 24.2705 32.2636 23.9792C32.2636 23.6879 32.0247 23.4548 31.7334 23.4548Z" fill="#6FC284"/>
<path d="M30.9702 7.72447C31.2615 7.72447 31.5004 7.49143 31.5004 7.20013C31.5004 6.90882 31.2615 6.67578 30.9702 6.67578C30.6789 6.67578 30.4401 6.90882 30.4401 7.20013C30.4401 7.49143 30.6789 7.72447 30.9702 7.72447Z" fill="#6FC284"/>
<path d="M29.4962 32.8928C29.2049 32.8928 28.9661 33.1259 28.9661 33.4172C28.9661 33.7085 29.2049 33.9415 29.4962 33.9415C29.7875 33.9415 30.0264 33.7085 30.0264 33.4172C30.0264 33.1259 29.7934 32.8928 29.4962 32.8928Z" fill="#6FC284"/>
<path d="M26.2045 1.54869C26.4958 1.54869 26.7347 1.31565 26.7347 1.02434C26.7347 0.733042 26.4958 0.5 26.2045 0.5C25.9132 0.5 25.6743 0.733042 25.6743 1.02434C25.6743 1.31565 25.9132 1.54869 26.2045 1.54869Z" fill="#6FC284"/>
<path d="M17.0226 8.07384C17.3139 8.07384 17.5528 7.84079 17.5528 7.54949C17.5528 7.25819 17.3139 7.02515 17.0226 7.02515C16.7313 7.02515 16.4924 7.25819 16.4924 7.54949C16.4983 7.84079 16.7313 8.07384 17.0226 8.07384Z" fill="#6FC284"/>
<path d="M12.6123 1.8983C12.9036 1.8983 13.1425 1.66526 13.1425 1.37395C13.1425 1.08265 12.9036 0.849609 12.6123 0.849609C12.321 0.849609 12.0822 1.08265 12.0822 1.37395C12.0822 1.66526 12.321 1.8983 12.6123 1.8983Z" fill="#6FC284"/>
<path d="M2.13708 9.41375C2.13708 9.70505 2.37595 9.93809 2.66726 9.93809C2.95856 9.93809 3.19743 9.70505 3.19743 9.41375C3.19743 9.12245 2.95856 8.8894 2.66726 8.8894C2.37595 8.8894 2.13708 9.12245 2.13708 9.41375Z" fill="#6FC284"/>
<path d="M1.90407 25.6104C1.61277 25.6104 1.3739 25.8434 1.3739 26.1347C1.3739 26.426 1.61277 26.659 1.90407 26.659C2.19538 26.659 2.43424 26.426 2.43424 26.1347C2.43424 25.8434 2.19538 25.6104 1.90407 25.6104Z" fill="#6FC284"/>
<path d="M29.4031 11.7734C29.2167 10.5499 28.133 9.58864 26.8513 9.58864C25.5812 9.58864 24.5092 10.5383 24.3053 11.7443H22.1147L24.6723 9.6469C25.2608 9.18082 25.5521 8.53995 25.6162 7.84083C25.6162 7.28152 25.488 6.79214 25.2083 6.36101C25.6977 6.21536 26.6357 6.08136 27.6728 6.61735C27.731 6.67561 27.7893 6.67561 27.8475 6.67561C27.9641 6.67561 28.0806 6.61735 28.2029 6.50083C28.2612 6.32605 28.2029 6.15127 28.0281 6.03475C27.2766 5.60945 26.5425 5.5104 25.9482 5.53371L27.4397 4.05389C27.5562 3.87911 27.5562 3.64606 27.4397 3.52954C27.2649 3.41302 27.0261 3.41302 26.9095 3.52954L25.3773 5.04432C25.4355 4.46171 25.319 3.70433 24.9054 2.88868C24.8471 2.7139 24.6141 2.59737 24.4335 2.7139C24.2587 2.77216 24.1422 3.0052 24.2587 3.17998C24.7889 4.18789 24.6432 5.11423 24.4975 5.60362C24.1014 5.30066 23.6295 5.16084 23.0876 5.16084C22.3244 5.16084 21.6195 5.5104 21.1476 6.09301L16.4168 11.8025H13.6786C13.7893 11.4588 13.8475 11.0918 13.8475 10.6956C13.8475 8.62152 12.2454 6.90283 10.2004 6.69892V6.32605H10.5558C11.0277 6.32605 11.4996 6.09301 11.8492 5.80171C12.2046 5.45214 12.3794 4.98606 12.3794 4.51997C12.3794 4.34519 12.2046 4.17041 12.024 4.17041H11.2607C10.8471 4.17041 10.4393 4.31606 10.1014 4.58406C10.0315 4.51415 9.94406 4.46171 9.85084 4.46171C9.74015 4.46171 9.64111 4.53163 9.57119 4.62484C9.24493 4.34519 8.83128 4.17041 8.37685 4.17041H7.61364C7.43886 4.17041 7.25825 4.34519 7.25825 4.51997C7.25825 5.5104 8.07972 6.32605 9.0818 6.32605H9.49545V6.69309C7.39807 6.84457 5.73182 8.58073 5.73182 10.6956C5.73182 11.0452 5.79008 11.3947 5.89495 11.7443H3.37227C2.66732 11.7443 1.96236 12.0356 1.43219 12.5599C0.902021 13.0843 0.610718 13.7251 0.610718 14.4825C0.610718 15.9507 1.77593 17.1334 3.23827 17.2091L5.02104 30.6207C5.25409 32.5433 6.96112 33.9998 8.90702 33.9998H23.6178C25.6162 33.9998 27.2649 32.5433 27.5038 30.6207L29.2341 17.215C29.91 17.1916 30.5858 16.912 31.0344 16.4051C31.5646 15.8808 31.8559 15.2399 31.8559 14.4825C31.85 13.0726 30.778 11.9307 29.4031 11.7734Z" fill="#6FC284"/>
<path d="M2.84202 7.78269C4.25192 7.78269 5.42879 6.61748 5.42879 5.21923C5.42879 3.82097 4.25775 2.65576 2.84202 2.65576C1.43211 2.65576 0.255249 3.82097 0.255249 5.21923C0.255249 6.61748 1.43211 7.78269 2.84202 7.78269Z" fill="#6FC284"/>
<path d="M19.3764 5.21918C20.1978 5.21918 20.8445 4.57831 20.8445 3.76267C20.8445 2.94702 20.1978 2.30615 19.3764 2.30615C18.5549 2.30615 17.9082 2.94702 17.9082 3.76267C17.9082 4.57831 18.5549 5.21918 19.3764 5.21918Z" fill="#6FC284"/>
</svg>
