<svg width="29" height="31" viewBox="0 0 29 31" fill="none" xmlns="http://www.w3.org/2000/svg">
<path d="M14.2181 0C7.11813 0 1.36316 5.75497 1.36316 12.8518H3.24429C3.24429 6.80246 8.16562 1.88114 14.215 1.88114C20.2644 1.88114 25.1857 6.80246 25.1857 12.8518H27.0668C27.0699 5.75497 21.315 0 14.2181 0Z" fill="#FAA71B"/>
<path d="M18.3957 19.605C18.3089 19.6577 18.219 19.7073 18.126 19.7538C18.0827 19.7786 18.0393 19.8003 17.9928 19.822C17.9339 19.8529 17.875 19.8808 17.8161 19.9087C18.0703 19.8313 18.3182 19.7538 18.5661 19.6701V19.4997C18.5103 19.5368 18.4545 19.5709 18.3957 19.605ZM18.3957 19.605C18.3089 19.6577 18.219 19.7073 18.126 19.7538C18.0827 19.7786 18.0393 19.8003 17.9928 19.822C17.9339 19.8529 17.875 19.8808 17.8161 19.9087C18.0703 19.8313 18.3182 19.7538 18.5661 19.6701V19.4997C18.5103 19.5368 18.4545 19.5709 18.3957 19.605ZM18.3957 19.605C18.3089 19.6577 18.219 19.7073 18.126 19.7538C18.0827 19.7786 18.0393 19.8003 17.9928 19.822C17.9339 19.8529 17.875 19.8808 17.8161 19.9087C18.0703 19.8313 18.3182 19.7538 18.5661 19.6701V19.4997C18.5103 19.5368 18.4545 19.5709 18.3957 19.605ZM18.3957 19.605C18.3089 19.6577 18.219 19.7073 18.126 19.7538C18.0827 19.7786 18.0393 19.8003 17.9928 19.822C17.9339 19.8529 17.875 19.8808 17.8161 19.9087C18.0703 19.8313 18.3182 19.7538 18.5661 19.6701V19.4997C18.5103 19.5368 18.4545 19.5709 18.3957 19.605ZM12.9134 20.6556C12.4981 20.606 12.089 20.5316 11.6893 20.4325C11.0571 20.2775 10.4527 20.0668 9.88251 19.8065V21.2475C10.8618 21.2196 11.8969 21.1329 12.9723 20.981V20.6618C12.9506 20.6587 12.932 20.6587 12.9134 20.6556ZM23.1 13.4751H22.4864L12.8204 13.4658L10.9548 13.9399C10.6356 14.0205 10.4682 14.3893 10.6325 14.6744C11.5622 16.2766 13.4031 16.9894 15.5011 16.4595C16.5734 16.1867 17.4411 15.6661 18.0672 14.8944C18.3771 14.5133 18.938 14.4482 19.3409 14.7333C19.6043 14.9192 19.7438 15.2136 19.7438 15.5143C19.7438 15.7188 19.6787 15.9264 19.5454 16.1C18.7242 17.1723 17.4783 17.947 15.9102 18.3468C15.7645 18.384 15.622 18.4181 15.4794 18.446V23.4417C15.4794 23.5191 15.4732 23.5935 15.4577 23.6679C15.3524 24.2536 14.841 24.6968 14.2243 24.6968C13.8524 24.6968 13.5146 24.5294 13.2853 24.2691C13.09 24.0491 12.9692 23.7609 12.9692 23.4417V18.5234C10.5395 18.1671 8.68627 16.4781 8.03546 13.9213C7.99518 13.7664 7.96109 13.6145 7.9332 13.4596L5.9064 13.4565H5.33617L1.37866 13.4534L1.86212 15.7498L2.55631 19.041L2.70816 19.76L2.74535 19.9366L2.95299 20.9283L3.13583 21.7961L3.14203 21.8271L3.43025 23.1875L3.5852 23.9344C3.60379 24.0088 3.62239 24.0894 3.64718 24.1669C3.65958 24.2071 3.66578 24.2412 3.68127 24.2784C3.69367 24.3187 3.70916 24.3621 3.72776 24.4055C3.79284 24.5852 3.87031 24.7495 3.96639 24.9075C3.98808 24.9447 4.00977 24.9819 4.04076 25.0191C4.11204 25.1369 4.19572 25.2484 4.28869 25.3538C4.88371 26.0604 5.77314 26.4974 6.74625 26.4974L21.6683 26.5098C23.193 26.5098 24.5163 25.4437 24.8355 23.9468L25.9326 18.8024L26.0999 18.0152L26.3293 16.9336L26.447 16.3851L26.4625 16.3045L26.54 15.9326L26.5803 15.7467L26.7631 14.8882L26.8809 14.3366L27.0669 13.472L23.1 13.4751ZM9.88251 23.4355C9.88251 24.1297 9.32158 24.6906 8.62739 24.6906C7.9332 24.6906 7.37226 24.1297 7.37226 23.4355V17.9098C7.37226 17.7177 7.41565 17.5348 7.49313 17.3737C7.69457 16.9491 8.12534 16.6578 8.62429 16.6578C9.31848 16.6578 9.87941 17.2218 9.87941 17.9129V23.4355H9.88251ZM21.0764 23.4355C21.0764 24.1297 20.5154 24.6906 19.8212 24.6906C19.127 24.6906 18.5661 24.1297 18.5661 23.4355V17.9098C18.5661 17.2187 19.127 16.6547 19.8212 16.6547C20.3047 16.6547 20.7231 16.9274 20.9307 17.3241C21.0237 17.4977 21.0764 17.696 21.0764 17.9067V23.4355ZM18.3957 19.605C18.3089 19.6577 18.219 19.7073 18.126 19.7538C18.0827 19.7786 18.0393 19.8003 17.9928 19.822C17.9339 19.8529 17.875 19.8808 17.8161 19.9087C18.0703 19.8313 18.3182 19.7538 18.5661 19.6701V19.4997C18.5103 19.5368 18.4545 19.5709 18.3957 19.605ZM18.3957 19.605C18.3089 19.6577 18.219 19.7073 18.126 19.7538C18.0827 19.7786 18.0393 19.8003 17.9928 19.822C17.9339 19.8529 17.875 19.8808 17.8161 19.9087C18.0703 19.8313 18.3182 19.7538 18.5661 19.6701V19.4997C18.5103 19.5368 18.4545 19.5709 18.3957 19.605ZM18.3957 19.605C18.3089 19.6577 18.219 19.7073 18.126 19.7538C18.0827 19.7786 18.0393 19.8003 17.9928 19.822C17.9339 19.8529 17.875 19.8808 17.8161 19.9087C18.0703 19.8313 18.3182 19.7538 18.5661 19.6701V19.4997C18.5103 19.5368 18.4545 19.5709 18.3957 19.605Z" fill="#FAA71B"/>
<path d="M12.9722 18.5233V20.6616C12.9536 20.6585 12.9351 20.6585 12.9165 20.6554C12.5012 20.6059 12.0921 20.5315 11.6923 20.4323C11.0601 20.2774 10.4558 20.0666 9.88557 19.8063V17.9097C9.88557 17.2186 9.32464 16.6545 8.63045 16.6545C8.1315 16.6545 7.70073 16.949 7.49929 17.3704C7.42181 17.5347 7.37842 17.7144 7.37842 17.9066V18.0894C7.28545 17.9964 7.19248 17.9004 7.1026 17.8012C6.42391 17.0574 5.91256 16.1959 5.61505 15.2414C5.52828 14.9593 5.4632 14.6773 5.41671 14.3953C5.36713 14.0823 5.34233 13.7662 5.33923 13.4563H5.90946L7.93625 13.4594C7.96415 13.6144 7.99824 13.7662 8.03852 13.9212C8.68623 16.481 10.5426 18.1669 12.9722 18.5233Z" fill="#FAA71B"/>
<path d="M23.1001 13.4749C23.1001 13.791 23.0722 14.104 23.0226 14.4108C22.8243 15.6349 22.2479 16.7878 21.3739 17.7671C21.281 17.8724 21.1818 17.9747 21.0795 18.077V17.9096C21.0795 17.6989 21.0268 17.5005 20.9339 17.327C20.7231 16.9303 20.3047 16.6576 19.8244 16.6576C19.1302 16.6576 18.5693 17.2216 18.5693 17.9127V19.8063C18.5104 19.8341 18.4515 19.862 18.3895 19.8868C18.343 19.9085 18.2965 19.9271 18.247 19.9488C18.185 19.9736 18.123 20.0015 18.061 20.0263C17.5404 20.2308 16.9856 20.3982 16.403 20.519C16.1272 20.5779 15.8545 20.6213 15.5787 20.6585C15.5446 20.6616 15.5136 20.6678 15.4795 20.6709V18.4551C15.6221 18.4272 15.7646 18.3931 15.9103 18.3559C17.4784 17.9561 18.7273 17.1844 19.5455 16.1091C19.6787 15.9324 19.7438 15.7279 19.7438 15.5233C19.7438 15.2227 19.6044 14.9283 19.3409 14.7424C18.9381 14.4573 18.3771 14.5223 18.0672 14.9035C17.4412 15.6752 16.5735 16.1958 15.5012 16.4686C13.4031 17.0016 11.5623 16.2857 10.6325 14.6835C10.4683 14.3984 10.6356 14.0296 10.9549 13.949L12.8205 13.4749L22.4865 13.4842L23.1001 13.4749Z" fill="#FAA71B"/>
<path d="M16.9391 10.7849L10.5519 12.4057C10.2358 12.4863 9.9166 12.2508 9.9197 11.9285C9.9259 10.1465 11.0509 8.68066 12.8886 8.2127C14.7419 7.74164 16.4154 8.51331 17.2676 10.0628C17.4256 10.348 17.2552 10.7044 16.9391 10.7849Z" fill="#FAA71B"/>
<path d="M22.3005 10.3137C21.1631 5.83866 16.6137 3.13317 12.1386 4.26743C7.98585 5.32112 5.35784 9.31272 5.90637 13.4593C5.94976 13.7847 6.01174 14.107 6.09232 14.4324C6.37123 15.5295 6.85469 16.5181 7.4931 17.3734C8.1439 18.2504 8.95896 18.9818 9.87938 19.5366C10.5116 19.9177 11.1903 20.2152 11.9062 20.4167C12.2533 20.5159 12.6066 20.5933 12.9692 20.646C13.4681 20.7204 13.9794 20.7514 14.4939 20.7328H14.497C14.8224 20.7204 15.1509 20.6894 15.4794 20.6398C15.7397 20.5995 15.9969 20.5468 16.2573 20.4818C16.8058 20.3423 17.3264 20.1502 17.8192 19.9177C17.8781 19.8898 17.937 19.8589 17.9958 19.831C18.0392 19.8093 18.0857 19.7876 18.1291 19.7628C18.219 19.7163 18.3089 19.6667 18.3987 19.614C18.4576 19.5799 18.5134 19.5458 18.5723 19.5118C18.9442 19.2824 19.2975 19.0283 19.626 18.7463C20.1156 18.3279 20.5557 17.8538 20.9338 17.3362C21.7581 16.2143 22.3005 14.8879 22.4864 13.4841C22.6259 12.449 22.5732 11.3798 22.3005 10.3137ZM10.6356 14.6741C11.5653 16.2763 13.4061 16.9891 15.5042 16.4592C16.5765 16.1865 17.4442 15.6658 18.0702 14.8941C18.3801 14.513 18.9411 14.4479 19.3439 14.733C19.6074 14.9189 19.7468 15.2133 19.7468 15.514C19.7468 15.7185 19.6817 15.9261 19.5485 16.0997C18.7272 17.172 17.4814 17.9467 15.9133 18.3465C15.7676 18.3837 15.6251 18.4178 15.4825 18.4457C14.5993 18.6223 13.7563 18.644 12.9723 18.5294C10.5426 18.173 8.68934 16.484 8.03853 13.9272C7.99824 13.7723 7.96415 13.6204 7.93626 13.4655C7.31955 10.1588 9.17589 7.23944 12.4299 6.41509C15.8358 5.55045 18.8822 7.382 19.8057 11.011C19.8181 11.0668 19.8243 11.1195 19.8243 11.1753C19.8243 11.4728 19.6229 11.7455 19.3222 11.823L12.8204 13.4748L10.9548 13.9489C10.6356 14.0202 10.4682 14.389 10.6356 14.6741Z" fill="#FAA71B"/>
<path d="M18.3058 30.9999C19.2232 30.9999 19.9669 30.2562 19.9669 29.3388C19.9669 28.4214 19.2232 27.6777 18.3058 27.6777C17.3884 27.6777 16.6447 28.4214 16.6447 29.3388C16.6447 30.2562 17.3884 30.9999 18.3058 30.9999Z" fill="#FAA71B"/>
<path d="M9.05197 30.9999C9.96937 30.9999 10.7131 30.2562 10.7131 29.3388C10.7131 28.4214 9.96937 27.6777 9.05197 27.6777C8.13457 27.6777 7.39087 28.4214 7.39087 29.3388C7.39087 30.2562 8.13457 30.9999 9.05197 30.9999Z" fill="#FAA71B"/>
<path d="M2.74841 19.9365C3.87338 20.5873 5.4632 21.0181 7.37223 21.1823V22.5676C5.72662 22.4778 4.28865 22.2143 3.1389 21.796L2.95605 20.9282L2.74841 19.9365Z" fill="#FAA71B"/>
<path d="M9.88245 21.2472C10.8618 21.2193 11.8968 21.1326 12.9722 20.9807V22.2668C11.8999 22.4249 10.868 22.5241 9.88245 22.5674V21.2472Z" fill="#FAA71B"/>
<path d="M15.4795 20.5251C16.2791 20.3485 17.0601 20.1408 17.8162 19.9115C18.0704 19.834 18.3183 19.7565 18.5662 19.6729V20.9652C17.5776 21.2844 16.5425 21.5664 15.4764 21.805V20.6336V20.5251H15.4795Z" fill="#FAA71B"/>
<path d="M26.7695 14.8911L26.5866 15.7496L26.5464 15.9355L26.4689 16.3074L26.4534 16.388L26.3356 16.9365C25.0309 18.0646 23.2179 19.1337 21.0796 20.0356V18.7061C23.5434 17.6214 25.5484 16.2857 26.7695 14.8911Z" fill="#FAA71B"/>
<path d="M28.5079 12.8706C28.5079 12.9914 28.5017 13.1185 28.4862 13.2425C28.3468 14.293 27.6216 15.3684 26.4532 16.388C25.1454 17.5285 23.286 18.6007 21.0795 19.4902C20.2861 19.8094 19.4462 20.1069 18.5692 20.3734C17.5806 20.674 16.5455 20.9405 15.4794 21.1606C14.81 21.3 14.1282 21.4178 13.4371 21.5201C13.2791 21.5418 13.1241 21.5635 12.9692 21.5852C11.8969 21.7277 10.8649 21.8114 9.87941 21.8424C9.00238 21.8703 8.16253 21.8579 7.36917 21.8052C5.64298 21.6905 4.14303 21.393 2.95299 20.9343C1.48713 20.3641 0.495428 19.5584 0.142134 18.5636C0.00887373 18.1917 -0.0314142 17.7919 0.0243691 17.3704C0.111143 16.7103 0.436545 16.0378 0.950991 15.3746C0.885911 15.5761 0.836325 15.7775 0.808434 15.9789C0.777443 16.2083 0.777443 16.4283 0.799137 16.6421C0.814632 16.8033 0.848722 16.9613 0.895208 17.1132C1.12454 17.8663 1.70097 18.5171 2.55631 19.0408C3.70916 19.7474 5.36717 20.2247 7.36917 20.4199C8.15633 20.4974 8.99618 20.5315 9.87941 20.5191C10.5333 20.5098 11.2089 20.4757 11.9062 20.4137C12.2564 20.3827 12.6097 20.3455 12.9692 20.3021C13.1799 20.2773 13.3938 20.2464 13.6076 20.2154C14.2398 20.1224 14.8627 20.0139 15.4794 19.8869C16.5455 19.6668 17.5806 19.3972 18.5692 19.0873C18.9256 18.9757 19.2789 18.858 19.6229 18.734C20.1218 18.5574 20.6084 18.3683 21.0764 18.17C23.6238 17.0977 25.6785 15.7527 26.884 14.3395C27.5348 13.5803 27.9377 12.7993 28.04 12.0276C28.0462 11.9718 28.0524 11.913 28.0555 11.8572C28.0586 11.8293 28.0586 11.8014 28.0586 11.7735C28.0617 11.6619 28.0617 11.5504 28.0524 11.4419C28.3468 11.8758 28.5017 12.353 28.5079 12.8706Z" fill="#FAA71B"/>
</svg>
