<svg width="148" height="203" viewBox="0 0 148 203" fill="none" xmlns="http://www.w3.org/2000/svg">
<path d="M73.6754 0C36.9091 0 7.09473 29.8144 7.09473 66.5807H16.8402C16.8402 35.2411 42.3358 9.74548 73.6754 9.74548C105.015 9.74548 130.511 35.2411 130.511 66.5807H140.256C140.256 29.8144 110.458 0 73.6754 0Z" fill="#FAA71B"/>
<path d="M95.3181 101.565C94.8685 101.838 94.4029 102.095 93.9213 102.335C93.6965 102.464 93.4717 102.576 93.2309 102.689C92.9258 102.849 92.6208 102.994 92.3158 103.138C93.6323 102.737 94.9167 102.335 96.2011 101.902V101.019C95.9282 101.212 95.6231 101.388 95.3181 101.565ZM95.3181 101.565C94.8685 101.838 94.4029 102.095 93.9213 102.335C93.6965 102.464 93.4717 102.576 93.2309 102.689C92.9258 102.849 92.6208 102.994 92.3158 103.138C93.6323 102.737 94.9167 102.335 96.2011 101.902V101.019C95.9282 101.212 95.6231 101.388 95.3181 101.565ZM95.3181 101.565C94.8685 101.838 94.4029 102.095 93.9213 102.335C93.6965 102.464 93.4717 102.576 93.2309 102.689C92.9258 102.849 92.6208 102.994 92.3158 103.138C93.6323 102.737 94.9167 102.335 96.2011 101.902V101.019C95.9282 101.212 95.6231 101.388 95.3181 101.565ZM95.3181 101.565C94.8685 101.838 94.4029 102.095 93.9213 102.335C93.6965 102.464 93.4717 102.576 93.2309 102.689C92.9258 102.849 92.6208 102.994 92.3158 103.138C93.6323 102.737 94.9167 102.335 96.2011 101.902V101.019C95.9282 101.212 95.6231 101.388 95.3181 101.565ZM66.9326 107.007C64.7812 106.751 62.6619 106.365 60.5908 105.852C57.3155 105.049 54.1848 103.957 51.2306 102.608V110.074C56.3041 109.93 61.6665 109.48 67.2376 108.693V107.04C67.1252 107.024 67.0289 107.024 66.9326 107.007ZM119.69 69.8077H116.511L66.4349 69.7595L56.7697 72.216C55.116 72.6334 54.249 74.544 55.0999 76.021C59.9165 84.3216 69.4532 88.0142 80.3226 85.2688C85.8776 83.856 90.3731 81.1587 93.6162 77.161C95.2217 75.1862 98.1277 74.849 100.215 76.3261C101.58 77.2894 102.302 78.8146 102.302 80.372C102.302 81.4316 101.965 82.5073 101.275 83.4064C97.0199 88.9615 90.5657 92.9753 82.4418 95.0464C81.6872 95.2391 80.9487 95.4157 80.2102 95.5602V121.441C80.2102 121.842 80.1781 122.228 80.0978 122.613C79.5519 125.648 76.9028 127.943 73.7078 127.943C71.7812 127.943 70.0312 127.076 68.8431 125.728C67.8317 124.588 67.2055 123.095 67.2055 121.441V95.9615C54.6183 94.1152 45.0173 85.3651 41.6457 72.1196C41.437 71.3169 41.2604 70.5302 41.1159 69.7274L30.6158 69.7114H27.6617L7.17529 69.6953L9.6799 81.5922L13.2762 98.6427L14.063 102.368L14.2556 103.283L15.3313 108.42L16.2786 112.916L16.3107 113.076L17.8038 120.125L18.6066 123.994C18.7029 124.379 18.7992 124.797 18.9277 125.198C18.9919 125.407 19.024 125.583 19.1043 125.776C19.1685 125.985 19.2488 126.209 19.3451 126.434C19.6823 127.365 20.0836 128.216 20.5813 129.035C20.6937 129.228 20.8061 129.42 20.9667 129.613C21.3359 130.223 21.7694 130.801 22.2511 131.347C25.3337 135.008 29.9415 137.271 34.9828 137.271L112.288 137.336C120.188 137.336 127.043 131.813 128.697 124.058L134.38 97.4065L135.247 93.3285L136.435 87.7252L137.045 84.8835L137.126 84.4661L137.527 82.5394L137.736 81.5761L138.683 77.1288L139.293 74.271L140.256 69.7916L119.69 69.8077ZM51.2146 121.409C51.2146 125.005 48.3086 127.911 44.7122 127.911C41.1159 127.911 38.2099 125.005 38.2099 121.409V92.7826C38.2099 91.7872 38.4347 90.8399 38.8361 90.0051C39.8796 87.8055 42.1113 86.2963 44.6962 86.2963C48.2925 86.2963 51.1985 89.2184 51.1985 92.7987V121.409H51.2146ZM109.222 121.409C109.222 125.005 106.316 127.911 102.719 127.911C99.1231 127.911 96.2172 125.005 96.2172 121.409V92.7826C96.2172 89.2023 99.1231 86.2803 102.719 86.2803C105.224 86.2803 107.392 87.6931 108.467 89.7482C108.949 90.6473 109.222 91.6748 109.222 92.7666V121.409ZM95.3181 101.565C94.8685 101.838 94.4029 102.095 93.9213 102.335C93.6965 102.464 93.4717 102.576 93.2309 102.689C92.9258 102.849 92.6208 102.994 92.3158 103.138C93.6323 102.737 94.9167 102.335 96.2011 101.902V101.019C95.9282 101.212 95.6231 101.388 95.3181 101.565ZM95.3181 101.565C94.8685 101.838 94.4029 102.095 93.9213 102.335C93.6965 102.464 93.4717 102.576 93.2309 102.689C92.9258 102.849 92.6208 102.994 92.3158 103.138C93.6323 102.737 94.9167 102.335 96.2011 101.902V101.019C95.9282 101.212 95.6231 101.388 95.3181 101.565ZM95.3181 101.565C94.8685 101.838 94.4029 102.095 93.9213 102.335C93.6965 102.464 93.4717 102.576 93.2309 102.689C92.9258 102.849 92.6208 102.994 92.3158 103.138C93.6323 102.737 94.9167 102.335 96.2011 101.902V101.019C95.9282 101.212 95.6231 101.388 95.3181 101.565Z" fill="#FAA71B"/>
<path d="M67.2208 95.9614V107.039C67.1245 107.023 67.0282 107.023 66.9318 107.007C64.7804 106.75 62.6612 106.365 60.5901 105.851C57.3148 105.049 54.1841 103.957 51.2299 102.608V92.7824C51.2299 89.2021 48.3239 86.2801 44.7276 86.2801C42.1427 86.2801 39.911 87.8053 38.8674 89.9888C38.4661 90.8398 38.2413 91.771 38.2413 92.7664V93.7136C37.7596 93.232 37.278 92.7343 36.8124 92.2205C33.2963 88.3673 30.6472 83.9039 29.1059 78.959C28.6564 77.4979 28.3192 76.0369 28.0784 74.5759C27.8215 72.9543 27.6931 71.3167 27.677 69.7112H30.6311L41.1312 69.7272C41.2757 70.53 41.4523 71.3167 41.661 72.1195C45.0166 85.381 54.6336 94.115 67.2208 95.9614Z" fill="#FAA71B"/>
<path d="M119.689 69.8079C119.689 71.4455 119.544 73.0671 119.288 74.6565C118.26 80.9983 115.274 86.9708 110.746 92.0443C110.265 92.5901 109.751 93.1199 109.221 93.6498V92.7828C109.221 91.691 108.948 90.6635 108.466 89.7644C107.375 87.7094 105.207 86.2965 102.719 86.2965C99.1222 86.2965 96.2162 89.2185 96.2162 92.7988V102.609C95.9112 102.753 95.6061 102.898 95.285 103.026C95.0442 103.138 94.8034 103.235 94.5465 103.347C94.2254 103.476 93.9043 103.62 93.5832 103.748C90.8859 104.808 88.0121 105.675 84.9937 106.301C83.5648 106.606 82.1519 106.831 80.723 107.024C80.5464 107.04 80.3859 107.072 80.2093 107.088V95.6085C80.9478 95.464 81.6863 95.2874 82.4409 95.0947C90.5648 93.0236 97.0351 89.0259 101.274 83.4547C101.964 82.5396 102.301 81.48 102.301 80.4203C102.301 78.863 101.579 77.3377 100.214 76.3744C98.1268 74.8973 95.2208 75.2345 93.6153 77.2093C90.3722 81.207 85.8767 83.9043 80.3216 85.3171C69.4523 88.0786 59.9155 84.3699 55.099 76.0694C54.2481 74.5923 55.1151 72.6817 56.7687 72.2643L66.4339 69.8079L116.51 69.856L119.689 69.8079Z" fill="#FAA71B"/>
<path d="M87.7876 55.8721L54.698 64.2689C53.0604 64.6864 51.4067 63.4662 51.4227 61.7964C51.4548 52.5647 57.2829 44.9706 66.8036 42.5463C76.4045 40.1059 85.0743 44.1037 89.4895 52.1312C90.2923 53.6083 89.4092 55.4547 87.7876 55.8721Z" fill="#FAA71B"/>
<path d="M115.563 53.4313C109.671 30.2477 86.1021 16.2315 62.9185 22.1077C41.4046 27.5665 27.7898 48.2455 30.6316 69.7273C30.8563 71.4131 31.1774 73.0828 31.5949 74.7686C33.0398 80.4521 35.5444 85.5737 38.8518 90.005C42.2234 94.5486 46.4459 98.3376 51.2143 101.211C54.4895 103.186 58.0056 104.728 61.7143 105.771C63.5125 106.285 65.3428 106.686 67.2212 106.959C69.8061 107.345 72.4552 107.505 75.1204 107.409H75.1364C76.8222 107.345 78.5241 107.184 80.2259 106.927C81.5746 106.718 82.9071 106.445 84.2558 106.108C87.0975 105.386 89.7948 104.39 92.3476 103.186C92.6526 103.042 92.9577 102.881 93.2627 102.737C93.4875 102.624 93.7283 102.512 93.9531 102.383C94.4187 102.143 94.8843 101.886 95.3499 101.613C95.6549 101.436 95.9439 101.26 96.249 101.083C98.1756 99.8949 100.006 98.5784 101.708 97.1174C104.244 94.9499 106.524 92.4935 108.483 89.8123C112.754 84.0003 115.563 77.1287 116.527 69.8557C117.233 64.4933 116.96 58.9543 115.563 53.4313ZM55.1157 76.0209C59.9322 84.3214 69.469 88.0141 80.3383 85.2687C85.8934 83.8558 90.3888 81.1586 93.632 77.1608C95.2375 75.186 98.1435 74.8489 100.231 76.326C101.595 77.2893 102.318 78.8145 102.318 80.3719C102.318 81.4315 101.981 82.5072 101.29 83.4063C97.0357 88.9614 90.5815 92.9752 82.4576 95.0463C81.703 95.2389 80.9645 95.4155 80.2259 95.56C75.6502 96.4752 71.2832 96.5876 67.2212 95.9935C54.634 94.1472 45.033 85.3971 41.6615 72.1516C41.4527 71.3489 41.2761 70.5622 41.1316 69.7594C37.9367 52.6286 47.5537 37.5046 64.4116 33.2339C82.0562 28.7545 97.8384 38.2431 102.623 57.0437C102.687 57.3327 102.719 57.6057 102.719 57.8946C102.719 59.4359 101.676 60.8488 100.118 61.2502L66.4346 69.8076L56.7693 72.264C55.1317 72.6333 54.2647 74.5438 55.1157 76.0209Z" fill="#FAA71B"/>
<path d="M94.8519 160.6C99.6046 160.6 103.457 156.747 103.457 151.994C103.457 147.242 99.6046 143.389 94.8519 143.389C90.0992 143.389 86.2463 147.242 86.2463 151.994C86.2463 156.747 90.0992 160.6 94.8519 160.6Z" fill="#6FC284"/>
<path d="M46.9271 160.6C51.6798 160.6 55.5327 156.747 55.5327 151.994C55.5327 147.242 51.6798 143.389 46.9271 143.389C42.1744 143.389 38.3215 147.242 38.3215 151.994C38.3215 156.747 42.1744 160.6 46.9271 160.6Z" fill="#6FC284"/>
<path d="M14.2549 103.282C20.0829 106.654 28.3192 108.886 38.2092 109.737V116.913C29.6839 116.448 22.2343 115.083 16.2778 112.916L15.3306 108.42L14.2549 103.282Z" fill="#FAA71B"/>
<path d="M51.2139 110.074C56.2873 109.93 61.6497 109.48 67.2209 108.693V115.356C61.6658 116.175 56.3194 116.689 51.2139 116.914V110.074Z" fill="#FAA71B"/>
<path d="M80.2096 106.333C84.3519 105.418 88.3978 104.342 92.3152 103.154C93.6318 102.753 94.9162 102.351 96.2006 101.918V108.613C91.079 110.267 85.7166 111.728 80.1936 112.964V106.895V106.333H80.2096Z" fill="#FAA71B"/>
<path d="M138.698 77.145L137.751 81.5923L137.542 82.5556L137.141 84.4822L137.061 84.8997L136.451 87.7414C129.692 93.5855 120.299 99.1245 109.221 103.797V96.9089C122.001 91.2896 132.373 84.3698 138.698 77.145Z" fill="#FAA71B"/>
<path d="M147.705 66.6769C147.705 67.303 147.673 67.9613 147.593 68.6035C146.87 74.0462 143.113 79.6173 137.061 84.8995C130.285 90.8078 120.652 96.3628 109.221 100.971C105.111 102.624 100.76 104.166 96.2163 105.546C91.0947 107.104 85.7323 108.484 80.2093 109.624C76.7414 110.347 73.2093 110.957 69.629 111.487C68.8102 111.599 68.0074 111.712 67.2047 111.824C61.6496 112.562 56.3032 112.996 51.1977 113.157C46.6541 113.301 42.3031 113.237 38.193 112.964C29.2503 112.37 21.4796 110.829 15.3144 108.452C7.70428 105.53 2.55058 101.356 0.736344 96.1862C0.0459729 94.2596 -0.162746 92.1885 0.126247 90.005C0.575791 86.5853 2.26158 83.1013 4.92674 79.6655C4.58958 80.7091 4.33269 81.7527 4.1882 82.7962C4.02765 83.9843 4.02765 85.1242 4.14003 86.232C4.22031 87.0669 4.39692 87.8857 4.63775 88.6724C5.82583 92.5738 8.81208 95.9454 13.2433 98.6587C19.2158 102.319 27.8053 104.792 38.177 105.803C42.255 106.205 46.6059 106.381 51.1816 106.317C54.5693 106.269 58.0693 106.092 61.6817 105.771C63.4959 105.611 65.3262 105.418 67.1886 105.193C68.2804 105.065 69.3882 104.904 70.496 104.744C73.7712 104.262 76.9983 103.7 80.1933 103.042C85.7163 101.902 91.0787 100.505 96.2003 98.8996C98.0466 98.3216 99.8769 97.7115 101.659 97.0693C104.244 96.1541 106.765 95.1748 109.189 94.1472C122.386 88.5922 133.031 81.6242 139.276 74.3031C142.648 70.3696 144.735 66.3237 145.265 62.3259C145.297 62.0369 145.329 61.7319 145.345 61.4429C145.361 61.2984 145.361 61.1539 145.361 61.0094C145.377 60.4314 145.377 59.8534 145.329 59.2915C146.87 61.5232 147.689 63.9957 147.705 66.6769Z" fill="#FAA71B"/>
<path d="M20.2279 188.618H9.21358V194.658C9.21358 195.922 9.30175 196.737 9.48545 197.097C9.66914 197.465 10.0218 197.648 10.5362 197.648C11.1828 197.648 11.6163 197.406 11.8294 196.921C12.0498 196.436 12.1527 195.503 12.1527 194.107V190.418H20.2206V192.483C20.2206 194.21 20.1104 195.54 19.8973 196.465C19.6768 197.391 19.1698 198.383 18.3689 199.434C17.568 200.485 16.554 201.278 15.3269 201.8C14.0999 202.329 12.5568 202.586 10.7052 202.586C8.90497 202.586 7.3252 202.329 5.94381 201.807C4.56977 201.285 3.497 200.573 2.73283 199.669C1.96865 198.765 1.43961 197.766 1.1457 196.678C0.85179 195.591 0.704834 194.011 0.704834 191.932V183.783C0.704834 181.344 1.03548 179.411 1.69679 178C2.35809 176.59 3.43821 175.509 4.93716 174.76C6.43611 174.01 8.16285 173.636 10.1174 173.636C12.5054 173.636 14.4746 174.091 16.025 174.995C17.5754 175.899 18.6628 177.104 19.2874 178.596C19.912 180.087 20.2279 182.196 20.2279 184.9V188.618ZM11.6971 184.07V182.027C11.6971 180.579 11.6163 179.646 11.462 179.227C11.3077 178.809 10.9917 178.596 10.5141 178.596C9.92632 178.596 9.55893 178.772 9.41932 179.132C9.27971 179.492 9.20623 180.455 9.20623 182.027V184.07H11.6971Z" fill="#6FC284"/>
<path d="M31.4039 174.15L31.2569 176.81C31.9182 175.752 32.7045 174.966 33.6156 174.437C34.5267 173.908 35.5701 173.643 36.7311 173.643C39.0015 173.643 40.7944 174.701 42.1023 176.81C42.815 175.752 43.6233 174.966 44.5271 174.437C45.4235 173.908 46.4228 173.643 47.5176 173.643C48.9651 173.643 50.1628 173.996 51.1107 174.694C52.0586 175.399 52.6684 176.259 52.9329 177.273C53.1975 178.294 53.3297 179.948 53.3297 182.233V202.087H45.0708V183.871C45.0708 181.483 44.99 180.007 44.8283 179.441C44.6667 178.875 44.2919 178.588 43.7041 178.588C43.1016 178.588 42.7122 178.868 42.5358 179.433C42.3595 179.992 42.2713 181.476 42.2713 183.879V202.094H34.0197V184.342C34.0197 181.601 33.9536 179.962 33.8213 179.411C33.6891 178.86 33.3217 178.588 32.7192 178.588C32.3371 178.588 32.0138 178.735 31.7492 179.022C31.4847 179.308 31.3378 179.661 31.3084 180.073C31.279 180.484 31.2643 181.366 31.2643 182.718V202.087H23.0054V174.143H31.4039V174.15Z" fill="#FAA71B"/>
<path d="M63.8518 184.974H55.8721V183.1C55.8721 180.94 56.1219 179.272 56.6215 178.096C57.1212 176.92 58.1205 175.892 59.6194 174.988C61.1184 174.092 63.0729 173.643 65.4756 173.643C68.356 173.643 70.5236 174.15 71.9858 175.172C73.448 176.193 74.3224 177.442 74.6163 178.919C74.9102 180.403 75.0572 183.453 75.0572 188.067V202.094H66.7835V199.603C66.2619 200.602 65.5932 201.352 64.7703 201.852C63.9473 202.351 62.97 202.601 61.8311 202.601C60.3395 202.601 58.9802 202.182 57.7384 201.345C56.4966 200.507 55.8721 198.677 55.8721 195.856V193.563C55.8721 191.469 56.2027 190.044 56.864 189.287C57.5253 188.53 59.1565 187.641 61.7723 186.634C64.5645 185.539 66.0635 184.805 66.2545 184.423C66.4529 184.04 66.5484 183.269 66.5484 182.108C66.5484 180.646 66.4382 179.698 66.2251 179.257C66.0047 178.816 65.6446 178.596 65.1376 178.596C64.5645 178.596 64.2045 178.779 64.0649 179.154C63.9253 179.529 63.8518 180.491 63.8518 182.049V184.974ZM66.5484 188.809C65.1891 189.808 64.3955 190.639 64.1824 191.315C63.962 191.991 63.8591 192.961 63.8591 194.217C63.8591 195.665 63.9546 196.598 64.1457 197.017C64.3367 197.435 64.7115 197.649 65.2699 197.649C65.8063 197.649 66.1516 197.487 66.3133 197.156C66.4749 196.826 66.5558 195.959 66.5558 194.555V188.809H66.5484Z" fill="#FAA71B"/>
<path d="M86.4904 174.15L86.1524 177.824C87.3868 175.194 89.1797 173.798 91.5237 173.643V183.475C89.9659 183.475 88.8197 183.688 88.0922 184.107C87.3648 184.525 86.9166 185.113 86.7476 185.863C86.5786 186.612 86.4978 188.346 86.4978 191.05V202.087H77.989V174.143H86.4904V174.15Z" fill="#FAA71B"/>
<path d="M111.737 174.15L108.284 185.282L112.766 202.094H104.588L101.936 189.918L101.928 202.094H93.4194V168H101.928L101.936 182.314L104.588 174.15H111.737Z" fill="#FAA71B"/>
<path d="M133.296 188.618H122.281V194.658C122.281 195.922 122.37 196.737 122.553 197.097C122.737 197.465 123.09 197.648 123.604 197.648C124.251 197.648 124.684 197.406 124.897 196.921C125.118 196.436 125.221 195.503 125.221 194.107V190.418H133.288V192.483C133.288 194.21 133.178 195.54 132.965 196.465C132.745 197.391 132.238 198.383 131.437 199.434C130.636 200.485 129.622 201.278 128.395 201.8C127.168 202.329 125.625 202.586 123.773 202.586C121.973 202.586 120.393 202.329 119.012 201.807C117.638 201.285 116.565 200.573 115.801 199.669C115.037 198.765 114.507 197.766 114.214 196.678C113.92 195.591 113.773 194.011 113.773 191.932V183.783C113.773 181.344 114.103 179.411 114.765 178C115.426 176.59 116.506 175.509 118.005 174.76C119.504 174.01 121.231 173.636 123.185 173.636C125.573 173.636 127.542 174.091 129.093 174.995C130.643 175.899 131.731 177.104 132.355 178.596C132.98 180.087 133.296 182.196 133.296 184.9V188.618ZM124.772 184.07V182.027C124.772 180.579 124.692 179.646 124.537 179.227C124.383 178.809 124.067 178.596 123.589 178.596C123.002 178.596 122.634 178.772 122.495 179.132C122.355 179.492 122.281 180.455 122.281 182.027V184.07H124.772Z" fill="#FAA71B"/>
<path d="M145.052 170.425V174.826H147.345V179.25H145.052V194.202C145.052 196.039 145.148 197.068 145.339 197.274C145.53 197.487 146.316 197.59 147.705 197.59V202.094H144.273C142.334 202.094 140.952 202.013 140.122 201.851C139.292 201.69 138.564 201.315 137.932 200.734C137.3 200.154 136.911 199.485 136.757 198.736C136.602 197.986 136.521 196.223 136.521 193.438V179.25H134.692V174.826H136.521V170.425H145.052Z" fill="#FAA71B"/>
</svg>
