<svg width="357" height="261" viewBox="0 0 357 261" fill="none" xmlns="http://www.w3.org/2000/svg">
<path opacity="0.62" d="M100.301 259.639C100.301 259.639 80.6555 247.835 73.11 208.772C65.5646 169.709 97.2647 133.808 144.535 111.297C191.806 88.798 249.225 35.0778 272.934 62.9652C296.644 90.8527 265.697 109.151 312.716 123.66C359.724 138.169 340.136 180.017 326.129 200.394C302.431 234.845 330.239 259.639 330.239 259.639H100.301Z" fill="#FDECE4"/>
<path d="M221.337 259.913H128.737C122.629 259.913 117.675 254.959 117.675 248.852V56.6187C117.675 49.3015 123.6 43.377 130.917 43.377H219.145C226.463 43.377 232.387 49.3015 232.387 56.6187V248.863C232.399 254.959 227.444 259.913 221.337 259.913Z" fill="#296197"/>
<path d="M128.737 255.803C124.913 255.803 121.796 252.687 121.796 248.863V54.4268C121.796 50.6027 124.913 47.4863 128.737 47.4863H221.337C225.161 47.4863 228.278 50.6027 228.278 54.4268V248.851C228.278 252.676 225.161 255.792 221.337 255.792H128.737V255.803Z" fill="white"/>
<path d="M121.796 77.8853V91.6521C122.709 90.5334 123.28 89.0722 123.28 87.4512C123.28 90.9557 125.791 93.7981 128.896 93.7981C131.99 93.7981 134.501 90.9557 134.501 87.4512C134.501 90.9557 137.115 93.7981 140.335 93.7981C143.554 93.7981 146.168 90.9557 146.168 87.4512C146.168 90.9557 148.69 93.7981 151.818 93.7981C154.706 93.7981 157.069 91.3438 157.4 88.1932C157.743 91.3438 160.197 93.7981 163.199 93.7981C166.316 93.7981 168.85 91.1612 169.032 87.8394C169.204 91.1612 171.612 93.7981 174.569 93.7981C177.651 93.7981 180.14 90.9557 180.14 87.4512C180.14 90.9557 182.754 93.7981 185.973 93.7981C189.192 93.7981 191.806 90.9557 191.806 87.4512C191.806 90.9557 194.306 93.7981 197.399 93.7981C200.493 93.7981 202.993 90.9557 202.993 87.4512C202.993 90.9557 205.596 93.7981 208.792 93.7981C212 93.7981 214.591 90.9557 214.591 87.4512C214.625 90.9557 217.136 93.7981 220.23 93.7981C223.323 93.7981 225.835 90.9557 225.835 87.4512C225.835 89.5859 226.805 91.458 228.278 92.6109V77.8853H121.796Z" fill="#CCCEE8"/>
<path d="M228.255 96.5947H121.796V193.533H228.255V96.5947Z" fill="#E8EAF6"/>
<mask id="mask0_166_4407" style="mask-type:luminance" maskUnits="userSpaceOnUse" x="121" y="47" width="108" height="209">
<path d="M128.737 255.803C124.913 255.803 121.796 252.687 121.796 248.863V54.4268C121.796 50.6027 124.913 47.4863 128.737 47.4863H221.337C225.161 47.4863 228.278 50.6027 228.278 54.4268V248.851C228.278 252.676 225.161 255.792 221.337 255.792H128.737V255.803Z" fill="white"/>
</mask>
<g mask="url(#mask0_166_4407)">
<path d="M134.844 128.432L137.424 130.818L141.293 125.841C141.293 125.841 137.755 119.254 136.294 117.656C134.844 116.058 126.785 112.668 126.785 112.668C126.785 112.668 125.061 115.35 121.796 115.442C118.531 115.35 116.808 112.668 116.808 112.668C116.808 112.668 108.749 116.058 107.299 117.656C105.849 119.254 102.299 125.841 102.299 125.841L106.169 130.818L108.749 128.432C108.749 128.432 111.648 132.542 109.879 142.656C108.109 152.781 102.31 182.141 102.31 182.141C102.31 182.141 109.559 186.616 117.299 186.616C118.817 186.616 124.798 186.616 126.317 186.616C134.045 186.616 141.305 182.141 141.305 182.141C141.305 182.141 135.506 152.781 133.737 142.656C131.944 132.53 134.844 128.432 134.844 128.432Z" fill="#6FC284"/>
</g>
<mask id="mask1_166_4407" style="mask-type:luminance" maskUnits="userSpaceOnUse" x="121" y="47" width="108" height="209">
<path d="M128.737 255.803C124.913 255.803 121.796 252.687 121.796 248.863V54.4268C121.796 50.6027 124.913 47.4863 128.737 47.4863H221.337C225.161 47.4863 228.278 50.6027 228.278 54.4268V248.851C228.278 252.676 225.161 255.792 221.337 255.792H128.737V255.803Z" fill="white"/>
</mask>
<g mask="url(#mask1_166_4407)">
<path d="M238.768 130.099L241.143 132.302L244.704 127.713C244.704 127.713 241.439 121.64 240.104 120.167C238.768 118.695 231.348 115.567 231.348 115.567C231.348 115.567 229.762 118.044 226.748 118.124C223.734 118.044 222.148 115.567 222.148 115.567C222.148 115.567 214.728 118.695 213.392 120.167C212.057 121.64 208.792 127.713 208.792 127.713L212.353 132.302L214.728 130.099C214.728 130.099 217.399 133.877 215.767 143.203C214.134 152.529 208.792 179.584 208.792 179.584C208.792 179.584 215.47 183.716 222.593 183.716C223.986 183.716 229.499 183.716 230.903 183.716C238.026 183.716 244.704 179.584 244.704 179.584C244.704 179.584 239.362 152.529 237.73 143.203C236.097 133.877 238.768 130.099 238.768 130.099Z" fill="#CCCEE8"/>
</g>
<path d="M193.621 122.313L196.943 125.395L201.92 118.98C201.92 118.98 197.354 110.498 195.481 108.432C193.609 106.377 183.233 102.005 183.233 102.005C183.233 102.005 181.018 105.464 176.806 105.578C172.594 105.464 170.379 102.005 170.379 102.005C170.379 102.005 160.003 106.377 158.131 108.432C156.259 110.487 151.693 118.98 151.693 118.98L156.67 125.395L159.991 122.313C159.991 122.313 163.724 127.598 161.441 140.646C159.158 153.682 151.681 183.396 151.681 183.396C151.681 183.396 161.019 189.172 170.984 189.172C172.936 189.172 180.642 189.172 182.594 189.172C192.559 189.172 201.897 183.396 201.897 183.396C201.897 183.396 194.42 153.682 192.137 140.646C189.888 127.598 193.621 122.313 193.621 122.313Z" fill="#F2653D"/>
<path d="M216.337 185.816C216.337 185.816 212.89 221.329 212.89 235.541C212.89 249.753 214.614 257.447 214.614 257.447H217.593L224.648 204.172C224.648 204.172 226.371 214.24 227.947 226.808C229.511 239.388 232.399 257.436 232.399 257.436H235.629C235.629 257.436 235.469 228.726 235.629 220.29C235.789 211.854 236.565 200.017 235.629 193.51C234.693 187.003 234.373 184.332 234.373 184.332L216.337 185.816Z" fill="#F2CBB1"/>
<path d="M212.89 228.201L221.006 231.683L221.303 228.966L212.89 228.201Z" fill="#F3A787"/>
<path d="M228.335 229.834L235.56 233.03V228.92L228.335 229.834Z" fill="#F3A787"/>
<path d="M217.627 181.547C211.714 204.172 200.481 218.532 208.7 225.473C216.931 232.413 220.789 227.276 234.156 230.621C247.524 233.966 250.617 221.112 246.496 212.368C242.387 203.624 237.456 197.289 238.723 192.894C240.207 187.745 235.96 181.627 235.96 181.627C235.96 181.627 232.889 181.741 226.999 181.901C222.25 182.015 217.627 181.547 217.627 181.547Z" fill="#6FC284"/>
<path d="M246.508 212.357C242.398 203.613 237.467 197.277 238.734 192.883C240.218 187.734 235.972 181.616 235.972 181.616C235.972 181.616 234.305 181.684 231.109 181.776C232.262 183.876 234.088 188.008 233.038 191.661C231.771 196.056 236.702 202.391 240.812 211.136C244.51 218.989 242.398 230.153 232.25 229.936C231.097 229.914 231.531 230.051 232.216 230.131C232.935 230.222 233.483 230.45 234.168 230.621C247.535 233.955 250.617 221.101 246.508 212.357Z" fill="#669E71"/>
<path d="M233.574 185.839C235.903 185.668 237.102 185.348 237.638 184.697C236.828 182.86 235.972 181.615 235.972 181.615C235.972 181.615 232.901 181.73 227.011 181.889C222.25 182.015 217.627 181.547 217.627 181.547C217.376 182.517 217.102 183.453 216.828 184.401C220.082 184.869 229.499 186.147 233.574 185.839Z" fill="#669E71"/>
<path d="M237.981 231.318C236.828 231.318 235.538 231.181 234.111 230.872C231.851 230.382 227.399 229.548 223.027 229.605C218.872 229.651 217.102 229.56 217.091 229.56C216.954 229.548 216.84 229.434 216.851 229.286C216.862 229.149 216.977 229.035 217.125 229.046C217.148 229.046 218.906 229.137 223.038 229.092C227.479 229.057 231.953 229.868 234.236 230.37C239.293 231.477 243.232 230.461 245.64 227.448C248.494 223.875 248.757 217.722 246.291 212.471C245.092 209.925 243.802 207.54 242.661 205.439C239.819 200.177 237.57 196.033 238.494 192.814C239.921 187.848 235.812 181.821 235.766 181.764C235.686 181.65 235.709 181.49 235.835 181.41C235.949 181.33 236.109 181.353 236.188 181.479C236.36 181.73 240.481 187.768 238.985 192.962C238.118 195.976 240.321 200.051 243.106 205.2C244.248 207.311 245.538 209.697 246.748 212.254C249.293 217.665 249.008 224.046 246.04 227.767C244.636 229.503 242.181 231.318 237.981 231.318Z" fill="#6C7DBD"/>
<path d="M225.287 142.507V147.826L228.757 147.301L227.775 141.993L225.287 142.507Z" fill="#F2CBB1"/>
<path d="M224.762 143.26C224.762 143.26 225.584 143.888 226.189 144.379C226.794 144.858 228.152 145.452 228.152 145.452L227.638 143.271H224.762V143.26Z" fill="#F3A787"/>
<path d="M221.737 129.037C221.737 129.037 220.915 129.379 220.629 130.783C220.344 132.187 221.737 134.025 221.737 134.025L223.141 131.217L221.737 129.037Z" fill="#233054"/>
<path d="M214.796 255.233C214.796 255.233 212.662 257.344 211.166 257.881C209.671 258.418 207.137 258.155 206.817 258.737C206.497 259.319 210.264 259.97 213.187 259.456C216.109 258.931 217.776 259.993 217.673 258.931C217.57 257.881 217.673 257.048 217.673 257.048L214.796 255.233Z" fill="#F2CBB1"/>
<path d="M232.045 255.233C232.045 255.233 231.497 257.721 229.111 257.881C227.524 257.995 225.081 258.155 224.762 258.737C224.442 259.319 228.209 259.97 231.131 259.456C234.054 258.931 235.72 259.993 235.618 258.931C235.515 257.881 235.618 257.048 235.618 257.048L232.045 255.233Z" fill="#F2CBB1"/>
<path d="M231.268 256.762C231.268 256.762 231.485 257.219 232.399 257.435C233.312 257.652 235.698 257.082 235.698 257.082C235.698 257.082 236.086 257.824 235.983 259.091C235.949 259.524 235.789 259.913 235.789 259.913C235.789 259.913 226.565 259.913 225.561 259.913C224.556 259.913 223.392 258.748 224.739 258.246C226.109 257.732 231.268 256.762 231.268 256.762Z" fill="#233054"/>
<path d="M226.577 149.676C229.202 147.027 232.273 148.774 236.656 154.813C241.04 160.851 246.2 168.945 242.958 171.821C241.462 173.157 234.921 175.919 228.3 178.522C220.527 181.581 222.387 176.524 228.757 173.043C230.972 171.833 234.362 170.406 235.698 169.538C239.807 166.89 230.481 161.513 227.65 157.335C225.059 153.523 225.447 150.817 226.577 149.676Z" fill="#F2CBB1"/>
<path d="M228.392 178.773L228.209 178.294C236.519 175.029 241.565 172.723 242.786 171.639C246.291 168.522 238.882 158.329 236.451 154.972C233.472 150.874 231.211 148.9 229.328 148.751C228.415 148.683 227.581 149.048 226.759 149.87L226.394 149.505C227.319 148.569 228.289 148.169 229.362 148.237C231.405 148.397 233.791 150.441 236.862 154.676C241.2 160.657 246.576 168.968 243.118 172.027C241.839 173.168 236.885 175.44 228.392 178.773Z" fill="#F3A787"/>
<path d="M213.073 257.047C213.073 257.047 213.369 257.709 214.271 257.926C215.162 258.143 217.684 257.047 217.684 257.047C217.684 257.047 217.844 258.657 217.878 259.091C217.901 259.524 217.684 259.913 217.684 259.913C217.684 259.913 208.609 259.913 207.616 259.913C206.623 259.913 205.47 258.748 206.817 258.246C208.141 257.732 213.073 257.047 213.073 257.047Z" fill="#233054"/>
<path d="M217.627 181.547C217.627 181.547 228.312 183.533 232.41 183.156C236.508 182.78 236.382 181.787 235.766 178.191C235.15 174.595 232.787 151.616 231.291 148.876C229.796 146.148 223.392 147.141 222.89 149.87C222.387 152.609 217.627 181.547 217.627 181.547Z" fill="white"/>
<path d="M219.374 166.467C219.374 166.467 219.282 168.979 222.011 167.495C224.739 166.011 230.561 159.618 230.561 159.618L230.241 154.344L219.374 166.467Z" fill="#E8EAF6"/>
<path d="M235.755 178.191C235.138 174.595 232.775 151.616 231.28 148.877C230.72 147.849 229.476 147.347 228.095 147.267C229.59 152.153 231.759 176.022 232.353 179.915C232.558 181.296 232.695 182.323 232.65 183.111C236.474 182.734 236.371 181.707 235.755 178.191Z" fill="#E8EAF6"/>
<path d="M217.627 181.81C217.444 181.775 217.353 181.65 217.376 181.513C217.422 181.227 222.479 152.598 222.638 149.87C222.707 148.671 224.431 147.701 225.892 147.233C226.029 147.187 226.177 147.267 226.211 147.404C226.257 147.541 226.177 147.689 226.04 147.724C224.636 148.169 223.186 149.059 223.141 149.904C222.992 152.655 218.084 180.428 217.878 181.604C217.855 181.718 217.753 181.81 217.627 181.81Z" fill="white"/>
<path d="M228.049 149.995C231.314 151.799 230.469 155.235 225.846 161.091C221.223 166.947 214.83 174.115 211.177 171.764C207.513 169.412 190.824 145.988 190.824 145.988L194.329 146.16C194.329 146.16 207.445 157.872 210.755 162.438C213.632 166.387 217.718 156.97 220.96 153.1C223.94 149.573 226.645 149.219 228.049 149.995Z" fill="#F2CBB1"/>
<path d="M213.426 172.415C213.289 172.415 213.175 172.312 213.175 172.175C213.164 172.038 213.267 171.913 213.415 171.901C215.355 171.741 218.632 168.716 219.705 167.723C221.817 165.771 223.837 163.226 225.606 160.965C228.78 156.947 230.07 154.23 229.693 152.37C229.51 151.468 228.94 150.76 227.924 150.201C227.798 150.132 227.752 149.973 227.821 149.847C227.889 149.721 228.049 149.676 228.175 149.744C229.328 150.383 229.99 151.205 230.195 152.256C230.595 154.265 229.282 157.118 226.04 161.228C224.214 163.545 222.193 166.114 220.047 168.089C218.118 169.869 215.344 172.244 213.449 172.403L213.426 172.415Z" fill="#F3A787"/>
<path d="M195.071 146.833C195.071 146.833 194.135 144.984 193.621 143.785C193.107 142.587 192.103 141.548 192.194 142.358C192.285 143.169 191.931 142.929 191.931 142.929C191.931 142.929 191.623 142.005 190.265 140.76C188.986 139.596 189.66 141.274 190.265 142.05C190.87 142.827 191.349 143.58 190.836 143.74C190.322 143.9 189.34 144.881 189.854 145.578C190.367 146.274 191.76 147.267 191.76 147.267L195.071 146.833Z" fill="#F2CBB1"/>
<path d="M224.054 128.603C226.394 128.203 232.33 128.443 232.125 133.249C231.919 138.055 230.184 142.05 228.654 142.815C227.125 143.58 224.579 143.819 224.579 143.819C224.579 143.819 222.741 142.21 221.954 139.402C221.851 139.059 221.063 139.31 221.006 138.922C220.938 138.5 221.611 137.45 221.6 136.993C221.577 136.057 221.234 135.76 221.337 135.11C221.634 133.043 221.862 131.422 222.49 130.247C223.289 128.763 224.054 128.603 224.054 128.603Z" fill="#F2CBB1"/>
<path d="M221.109 131.56C221.109 131.56 222.205 132.849 224.134 133.683C226.063 134.516 226.189 137.541 226.451 139.47C226.714 141.399 229.476 146.251 227.547 148.488C225.618 150.726 227.353 155.155 232.136 156.89C236.93 158.625 242.136 157.666 240.207 153.226C238.277 148.785 240.172 147.632 243.985 147.278C247.798 146.924 248.631 144.288 246.314 139.858C243.996 135.418 240.983 136.263 239.179 131.571C238.414 129.596 237.661 128.112 236.668 127.085C235.309 125.669 233.186 123.923 230.367 124.003C225.481 124.128 222.49 126.366 221.577 128.169C220.664 129.95 221.109 131.56 221.109 131.56Z" fill="#233054"/>
<path d="M221.965 136C222.307 135.943 222.479 136.525 221.965 136.525C221.451 136.514 221.965 136 221.965 136Z" fill="#233054"/>
<path d="M221.212 135.155C221.212 135.155 221.212 134.961 221.394 134.733C221.486 134.63 221.611 134.493 221.817 134.436C222.011 134.379 222.308 134.424 222.49 134.584C222.81 134.961 222.798 135.303 222.833 135.555C222.844 135.817 222.821 136.011 222.81 135.988C222.833 135.988 222.707 135.851 222.559 135.635C222.41 135.429 222.296 135.064 222.148 134.95C222.056 134.813 221.794 134.847 221.577 134.938C221.36 135.029 221.212 135.155 221.212 135.155Z" fill="#233054"/>
<path d="M222.89 141.388C222.775 141.388 222.673 141.308 222.638 141.194C222.604 141.057 222.684 140.92 222.821 140.874C222.821 140.874 223.483 140.692 223.894 140.406C224.008 140.327 224.168 140.349 224.248 140.475C224.328 140.589 224.294 140.749 224.179 140.829C223.689 141.16 222.981 141.365 222.947 141.365C222.935 141.388 222.912 141.388 222.89 141.388Z" fill="#233054"/>
<path d="M117.47 89.2888C120.677 89.2888 123.269 86.4464 123.269 82.9419H111.671C111.671 86.4464 114.273 89.2888 117.47 89.2888Z" fill="#D45A4C"/>
<path d="M140.334 89.2888C143.554 89.2888 146.168 86.4464 146.168 82.9419H134.501C134.501 86.4464 137.115 89.2888 140.334 89.2888Z" fill="#D45A4C"/>
<path d="M163.199 89.2888C166.441 89.2888 169.067 86.4464 169.067 82.9419H157.332C157.32 86.4464 159.957 89.2888 163.199 89.2888Z" fill="#D45A4C"/>
<path d="M185.973 89.2888C189.192 89.2888 191.806 86.4464 191.806 82.9419H180.151C180.151 86.4464 182.753 89.2888 185.973 89.2888Z" fill="#D45A4C"/>
<path d="M208.792 89.2888C211.999 89.2888 214.591 86.4464 214.591 82.9419H202.981C202.993 86.4464 205.584 89.2888 208.792 89.2888Z" fill="#D45A4C"/>
<path d="M231.634 89.2888C234.841 89.2888 237.433 86.4464 237.433 82.9419H225.823C225.835 86.4464 228.437 89.2888 231.634 89.2888Z" fill="#D45A4C"/>
<path d="M248.585 79.9398L231.189 48.2396C229.568 45.2831 223.654 43 217.901 43H132.173C126.431 43 120.518 45.2831 118.885 48.2396L101.488 79.9398C101.408 80.0767 100.233 82.9306 100.313 83.6497C100.632 86.8117 103.041 89.2774 105.975 89.2774C109.125 89.2774 111.671 86.435 111.671 82.9306H123.28C123.28 86.435 125.791 89.2774 128.896 89.2774C131.99 89.2774 134.501 86.435 134.501 82.9306H146.168C146.168 86.435 148.702 89.2774 151.818 89.2774C154.935 89.2774 157.469 86.435 157.469 82.9306H169.01C169.01 86.435 171.51 89.2774 174.58 89.2774C177.662 89.2774 180.162 86.435 180.162 82.9306H191.829C191.829 86.435 194.329 89.2774 197.422 89.2774C200.516 89.2774 203.016 86.435 203.016 82.9306H214.659C214.659 86.435 217.171 89.2774 220.264 89.2774C223.358 89.2774 225.869 86.435 225.869 82.9306H237.49C237.49 86.435 240.252 89.2774 243.654 89.2774C246.827 89.2774 249.43 86.8117 249.784 83.6497C249.83 82.9191 248.665 80.0767 248.585 79.9398Z" fill="url(#paint0_radial_166_4407)"/>
<path d="M123.326 82.942H111.671L130.141 43H138.405L123.326 82.942Z" fill="#F2653D"/>
<path d="M146.168 82.942H134.501L146.316 43H154.581L146.168 82.942Z" fill="#F2653D"/>
<path d="M168.987 82.942H157.32L162.491 43H170.745L168.987 82.942Z" fill="#F2653D"/>
<path d="M191.806 82.942H180.151L178.655 43H186.92L191.806 82.942Z" fill="#F2653D"/>
<path d="M214.636 82.942H202.981L194.831 43H203.095L214.636 82.942Z" fill="#F2653D"/>
<path d="M237.455 82.942H225.8L211.006 43H219.259L237.455 82.942Z" fill="#F2653D"/>
<path d="M174.329 200.394C174.329 199.024 175.436 197.905 176.817 197.905C178.199 197.905 179.306 199.012 179.306 200.394C179.306 201.763 178.199 202.882 176.817 202.882C175.436 202.882 174.329 201.775 174.329 200.394Z" fill="#CCCEE8"/>
<path d="M183.541 202.072C184.468 202.072 185.219 201.32 185.219 200.394C185.219 199.467 184.468 198.716 183.541 198.716C182.614 198.716 181.863 199.467 181.863 200.394C181.863 201.32 182.614 202.072 183.541 202.072Z" fill="#CCCEE8"/>
<path d="M187.651 200.393C187.651 199.731 188.187 199.183 188.861 199.183C189.523 199.183 190.071 199.72 190.071 200.393C190.071 201.055 189.534 201.603 188.861 201.603C188.187 201.603 187.651 201.067 187.651 200.393Z" fill="#CCCEE8"/>
<path d="M169.934 202.072C170.861 202.072 171.612 201.32 171.612 200.394C171.612 199.467 170.861 198.716 169.934 198.716C169.007 198.716 168.256 199.467 168.256 200.394C168.256 201.32 169.007 202.072 169.934 202.072Z" fill="#CCCEE8"/>
<path d="M165.825 200.393C165.825 199.731 165.288 199.183 164.615 199.183C163.953 199.183 163.405 199.72 163.405 200.393C163.405 201.055 163.941 201.603 164.615 201.603C165.288 201.603 165.825 201.067 165.825 200.393Z" fill="#CCCEE8"/>
<path d="M190.562 231.443H163.074C156.841 231.443 151.738 226.34 151.738 220.108C151.738 213.875 156.841 208.772 163.074 208.772H190.573C196.806 208.772 201.908 213.875 201.908 220.108C201.897 226.34 196.794 231.443 190.562 231.443Z" fill="#7991B6"/>
<path d="M164.889 215.907C165.551 215.838 166.533 215.77 167.8 215.77C170.22 215.77 171.555 216.74 171.555 218.315C171.555 219.366 170.996 220.062 169.934 220.53C171.201 220.987 171.886 221.774 171.886 222.95C171.886 224.742 170.448 225.884 167.754 225.884C166.612 225.884 165.505 225.827 164.9 225.747V215.907H164.889ZM167.777 220.142C169.261 220.142 170.208 219.468 170.208 218.475C170.208 217.414 169.272 216.854 167.777 216.854C167.16 216.854 166.658 216.888 166.224 216.923V220.142H167.777ZM170.505 222.996C170.505 221.866 169.546 221.192 167.834 221.192H166.224V224.685C166.715 224.742 167.275 224.765 167.834 224.765C169.512 224.754 170.505 224.137 170.505 222.996Z" fill="white"/>
<path d="M179.603 215.873H180.904V221.946C180.904 224.446 179.432 225.93 177.217 225.93C174.934 225.93 173.564 224.537 173.564 222.003V215.873H174.9V221.786C174.9 223.681 175.665 224.754 177.217 224.754C178.815 224.754 179.603 223.726 179.603 221.786V215.873Z" fill="white"/>
<path d="M186.247 220.758L189.215 215.804L190.276 216.421L186.863 222.003V225.758H185.527V222.003L182.091 216.421L183.222 215.747L186.247 220.758Z" fill="white"/>
<path d="M279.76 228.498C279.475 228.498 279.247 228.27 279.247 227.984V222.06C279.247 219.56 277.215 217.528 274.715 217.528C272.215 217.528 270.183 219.56 270.183 222.06V227.984C270.183 228.27 269.955 228.498 269.669 228.498C269.384 228.498 269.156 228.27 269.156 227.984V222.06C269.156 218.989 271.655 216.5 274.715 216.5C277.774 216.5 280.274 219 280.274 222.06V227.984C280.274 228.27 280.046 228.498 279.76 228.498Z" fill="#CCCEE8"/>
<path d="M285.331 225.473H257.044V259.639H285.331V225.473Z" fill="#6FC284"/>
<path d="M276.587 228.498C276.301 228.498 276.073 228.27 276.073 227.984V222.06C276.073 219.56 274.041 217.528 271.541 217.528C269.041 217.528 267.009 219.56 267.009 222.06V227.984C267.009 228.27 266.781 228.498 266.496 228.498C266.21 228.498 265.982 228.27 265.982 227.984V222.06C265.982 218.989 268.482 216.5 271.541 216.5C274.601 216.5 277.101 219 277.101 222.06V227.984C277.112 228.27 276.872 228.498 276.587 228.498Z" fill="#7991B6"/>
<path d="M302.443 218.133C302.02 218.133 301.666 217.791 301.666 217.357V209.435C301.666 206.147 299.155 203.464 296.061 203.464C292.979 203.464 290.468 206.147 290.468 209.435V217.357C290.468 217.779 290.126 218.133 289.692 218.133C289.258 218.133 288.916 217.791 288.916 217.357V209.435C288.916 205.291 292.123 201.923 296.061 201.923C300 201.923 303.207 205.291 303.207 209.435V217.357C303.207 217.779 302.865 218.133 302.443 218.133Z" fill="#CCCEE8"/>
<path d="M312.716 214.012H277.009V259.65H312.716V214.012Z" fill="#D45A4C"/>
<path d="M309.474 214.012H273.767V259.65H309.474V214.012Z" fill="#F2653D"/>
<path d="M298.436 218.133C298.013 218.133 297.66 217.791 297.66 217.357V209.435C297.66 206.147 295.148 203.464 292.066 203.464C288.984 203.464 286.473 206.147 286.473 209.435V217.357C286.473 217.779 286.13 218.133 285.696 218.133C285.274 218.133 284.92 217.791 284.92 217.357V209.435C284.92 205.291 288.128 201.923 292.066 201.923C296.004 201.923 299.212 205.291 299.212 209.435V217.357C299.212 217.779 298.858 218.133 298.436 218.133Z" fill="#7991B6"/>
<path d="M120.871 218.133C120.449 218.133 120.095 217.791 120.095 217.357V209.435C120.095 206.147 117.584 203.464 114.502 203.464C111.42 203.464 108.897 206.147 108.897 209.435V217.357C108.897 217.779 108.554 218.133 108.121 218.133C107.698 218.133 107.344 217.791 107.344 217.357V209.435C107.344 205.291 110.552 201.923 114.49 201.923C118.429 201.923 121.636 205.291 121.636 209.435V217.357C121.648 217.779 121.294 218.133 120.871 218.133Z" fill="#CCCEE8"/>
<path d="M131.145 214.012H95.4382V259.65H131.145V214.012Z" fill="#669E71"/>
<path d="M127.903 214.012H92.1963V259.65H127.903V214.012Z" fill="#6FC284"/>
<path d="M116.865 218.133C116.442 218.133 116.088 217.791 116.088 217.357V209.435C116.088 206.147 113.577 203.464 110.484 203.464C107.39 203.464 104.89 206.147 104.89 209.435V217.357C104.89 217.779 104.548 218.133 104.114 218.133C103.692 218.133 103.338 217.791 103.338 217.357V209.435C103.338 205.291 106.545 201.923 110.484 201.923C114.422 201.923 117.63 205.291 117.63 209.435V217.357C117.641 217.779 117.299 218.133 116.865 218.133Z" fill="#7991B6"/>
<path d="M265.012 140.178C264.898 140.178 264.795 140.144 264.692 140.075L262.432 138.431L260.149 140.075C259.955 140.212 259.704 140.212 259.521 140.075C259.327 139.938 259.247 139.699 259.327 139.47L260.195 136.81L257.923 135.144C257.729 135.007 257.649 134.767 257.729 134.539C257.798 134.311 258.003 134.162 258.243 134.162H261.04L261.918 131.491C261.987 131.263 262.192 131.114 262.432 131.114C262.672 131.114 262.866 131.263 262.946 131.491L263.813 134.151L266.633 134.162C266.873 134.162 267.067 134.311 267.147 134.539C267.215 134.767 267.147 134.995 266.953 135.144L264.692 136.788L265.549 139.47C265.617 139.699 265.549 139.927 265.354 140.075C265.24 140.144 265.126 140.178 265.012 140.178ZM262.432 137.906C262.546 137.906 262.649 137.941 262.752 138.009L265.023 139.653L264.179 136.97C264.11 136.753 264.179 136.502 264.373 136.365L266.633 134.721L263.825 134.699C263.585 134.699 263.38 134.55 263.311 134.322L262.444 131.662C262.432 131.651 261.553 134.322 261.553 134.322C261.485 134.539 261.279 134.699 261.04 134.699H258.243L260.503 136.377C260.697 136.514 260.766 136.753 260.697 136.982L259.829 139.641L262.124 138.009C262.204 137.941 262.318 137.906 262.432 137.906Z" fill="#F2653D"/>
<path d="M275.788 140.178C275.674 140.178 275.571 140.144 275.468 140.075L273.208 138.431L270.925 140.075C270.731 140.212 270.48 140.212 270.297 140.075C270.103 139.938 270.023 139.699 270.103 139.47L270.971 136.81L268.699 135.144C268.505 135.007 268.425 134.767 268.505 134.539C268.573 134.311 268.779 134.162 269.019 134.162H271.815L272.694 131.491C272.763 131.263 272.968 131.114 273.208 131.114C273.448 131.114 273.642 131.263 273.722 131.491L274.589 134.151L277.409 134.162C277.649 134.162 277.843 134.311 277.923 134.539C277.991 134.767 277.923 134.995 277.728 135.144L275.457 136.788L276.313 139.47C276.381 139.699 276.313 139.927 276.119 140.075C276.005 140.144 275.891 140.178 275.788 140.178ZM273.197 137.906C273.311 137.906 273.414 137.941 273.516 138.009L275.788 139.653L274.943 136.97C274.875 136.753 274.955 136.502 275.137 136.365L277.409 134.721L274.601 134.699C274.372 134.699 274.167 134.55 274.087 134.322L273.219 131.662C273.208 131.651 272.329 134.322 272.329 134.322C272.261 134.539 272.055 134.699 271.815 134.699H269.019L271.279 136.377C271.473 136.514 271.541 136.753 271.473 136.982L270.605 139.641L272.888 138.009C272.968 137.941 273.082 137.906 273.197 137.906Z" fill="#F2653D"/>
<path d="M281.37 140.178C281.256 140.178 281.153 140.144 281.05 140.075C280.856 139.938 280.776 139.699 280.856 139.47L281.724 136.81L279.452 135.144C279.258 135.007 279.178 134.767 279.258 134.539C279.327 134.311 279.532 134.162 279.772 134.162H282.569L283.448 131.491C283.516 131.263 283.722 131.114 283.961 131.114C284.201 131.114 284.395 131.263 284.475 131.491L285.343 134.151L288.162 134.162C288.402 134.162 288.596 134.311 288.676 134.539C288.744 134.767 288.676 134.995 288.482 135.144L286.21 136.788L287.066 139.47C287.135 139.699 287.066 139.927 286.872 140.075C286.678 140.212 286.427 140.212 286.244 140.075L283.984 138.431L281.701 140.075C281.587 140.144 281.473 140.178 281.37 140.178ZM283.961 137.906C284.075 137.906 284.178 137.941 284.281 138.009L286.553 139.653L285.708 136.97C285.639 136.753 285.719 136.502 285.902 136.365L288.174 134.721L285.365 134.699C285.126 134.699 284.92 134.55 284.852 134.322L283.984 131.662C283.973 131.651 283.094 134.322 283.094 134.322C283.025 134.539 282.82 134.699 282.58 134.699H279.783L282.044 136.377C282.238 136.514 282.306 136.753 282.238 136.982L281.37 139.641L283.665 138.009C283.733 137.941 283.847 137.906 283.961 137.906Z" fill="#F2653D"/>
<path d="M292.135 140.178C292.02 140.178 291.918 140.144 291.815 140.075C291.621 139.938 291.541 139.699 291.621 139.47L292.488 136.81L290.217 135.144C290.023 135.007 289.943 134.767 290.023 134.539C290.091 134.311 290.297 134.162 290.536 134.162H293.333L294.212 131.491C294.281 131.263 294.486 131.114 294.726 131.114C294.966 131.114 295.16 131.263 295.24 131.491L296.107 134.151L298.927 134.162C299.166 134.162 299.36 134.311 299.44 134.539C299.509 134.767 299.44 134.995 299.246 135.144L296.986 136.788L297.842 139.47C297.911 139.699 297.842 139.927 297.648 140.075C297.454 140.212 297.203 140.212 297.02 140.075L294.76 138.431L292.477 140.075C292.351 140.144 292.237 140.178 292.135 140.178ZM294.726 137.906C294.84 137.906 294.943 137.941 295.045 138.009L297.317 139.653L296.472 136.97C296.404 136.753 296.472 136.502 296.666 136.365L298.927 134.721L296.119 134.699C295.879 134.699 295.673 134.55 295.605 134.322L294.737 131.662C294.726 131.651 293.847 134.322 293.847 134.322C293.778 134.539 293.573 134.699 293.333 134.699H290.536L292.797 136.377C292.991 136.514 293.059 136.753 292.991 136.982L292.123 139.641L294.418 138.009C294.498 137.941 294.612 137.906 294.726 137.906Z" fill="#F2653D"/>
<path d="M302.899 140.178C302.785 140.178 302.682 140.144 302.58 140.075C302.385 139.938 302.306 139.699 302.385 139.47L303.253 136.81L300.981 135.144C300.787 135.007 300.719 134.767 300.787 134.539C300.856 134.311 301.061 134.162 301.301 134.162H304.098L304.977 131.491C305.045 131.263 305.251 131.114 305.49 131.114C305.73 131.114 305.924 131.263 306.004 131.491L306.872 134.151L309.691 134.162C309.931 134.162 310.125 134.311 310.205 134.539C310.273 134.767 310.205 134.995 310.011 135.144L307.739 136.788L308.595 139.47C308.664 139.699 308.595 139.927 308.401 140.075C308.207 140.212 307.956 140.212 307.773 140.075L305.513 138.431L303.23 140.075C303.116 140.144 303.002 140.178 302.899 140.178ZM305.49 137.906C305.605 137.906 305.707 137.941 305.81 138.009L308.082 139.653L307.237 136.97C307.168 136.753 307.248 136.502 307.431 136.365L309.703 134.721L306.895 134.699C306.666 134.699 306.461 134.55 306.381 134.322L305.513 131.662C305.502 131.651 304.623 134.322 304.623 134.322C304.554 134.539 304.349 134.699 304.109 134.699H301.312L303.573 136.377C303.767 136.514 303.835 136.753 303.767 136.982L302.899 139.641L305.194 138.009C305.262 137.941 305.376 137.906 305.49 137.906Z" fill="#F2653D"/>
<path d="M261.599 130.806L262.466 133.466C262.501 133.58 262.615 133.66 262.729 133.66H265.526C265.788 133.66 265.902 134.003 265.685 134.162L263.425 135.806C263.334 135.875 263.288 136 263.322 136.114L264.19 138.774C264.27 139.025 263.984 139.242 263.768 139.082L261.496 137.439C261.405 137.37 261.268 137.37 261.176 137.439L258.916 139.082C258.699 139.242 258.414 139.025 258.494 138.774L259.361 136.114C259.396 136 259.361 135.875 259.259 135.806L256.998 134.162C256.781 134.003 256.896 133.66 257.158 133.66H259.955C260.069 133.66 260.183 133.58 260.217 133.466L261.085 130.806C261.154 130.544 261.519 130.544 261.599 130.806Z" fill="#F2653D"/>
<path d="M272.364 130.806L273.231 133.466C273.265 133.58 273.379 133.66 273.494 133.66H276.29C276.553 133.66 276.667 134.003 276.45 134.162L274.19 135.806C274.099 135.875 274.053 136 274.087 136.114L274.955 138.774C275.035 139.025 274.749 139.242 274.532 139.082L272.272 137.439C272.181 137.37 272.044 137.37 271.953 137.439L269.692 139.082C269.475 139.242 269.19 139.025 269.27 138.774L270.138 136.114C270.172 136 270.138 135.875 270.035 135.806L267.775 134.162C267.558 134.003 267.672 133.66 267.934 133.66H270.731C270.845 133.66 270.959 133.58 270.994 133.466L271.861 130.806C271.918 130.544 272.284 130.544 272.364 130.806Z" fill="#F2653D"/>
<path d="M283.128 130.806L283.996 133.466C284.03 133.58 284.144 133.66 284.258 133.66H287.055C287.317 133.66 287.432 134.003 287.215 134.162L284.954 135.806C284.863 135.875 284.818 136 284.852 136.114L285.719 138.774C285.799 139.025 285.514 139.242 285.297 139.082L283.037 137.439C282.945 137.37 282.808 137.37 282.717 137.439L280.457 139.082C280.24 139.242 279.955 139.025 280.035 138.774L280.902 136.114C280.936 136 280.902 135.875 280.799 135.806L278.539 134.162C278.322 134.003 278.436 133.66 278.699 133.66H281.496C281.61 133.66 281.724 133.58 281.758 133.466L282.626 130.806C282.694 130.544 283.048 130.544 283.128 130.806Z" fill="#F2653D"/>
<path d="M293.893 130.806L294.76 133.466C294.794 133.58 294.909 133.66 295.023 133.66H297.819C298.082 133.66 298.196 134.003 297.979 134.162L295.719 135.806C295.628 135.875 295.582 136 295.616 136.114L296.484 138.774C296.564 139.025 296.278 139.242 296.061 139.082L293.801 137.439C293.71 137.37 293.573 137.37 293.482 137.439L291.221 139.082C291.005 139.242 290.719 139.025 290.799 138.774L291.667 136.114C291.701 136 291.667 135.875 291.564 135.806L289.304 134.162C289.087 134.003 289.201 133.66 289.463 133.66H292.26C292.374 133.66 292.488 133.58 292.523 133.466L293.39 130.806C293.459 130.544 293.813 130.544 293.893 130.806Z" fill="#F2653D"/>
<path d="M304.657 130.806L305.525 133.466C305.559 133.58 305.673 133.66 305.787 133.66H308.584C308.847 133.66 308.961 134.003 308.744 134.162L306.484 135.806C306.392 135.875 306.347 136 306.381 136.114L307.248 138.774C307.328 139.025 307.043 139.242 306.826 139.082L304.566 137.439C304.474 137.37 304.337 137.37 304.246 137.439L301.986 139.082C301.769 139.242 301.484 139.025 301.564 138.774L302.431 136.114C302.465 136 302.431 135.875 302.328 135.806L300.068 134.162C299.851 134.003 299.965 133.66 300.228 133.66H303.025C303.139 133.66 303.253 133.58 303.287 133.466L304.155 130.806C304.223 130.544 304.577 130.544 304.657 130.806Z" fill="#F2653D"/>
<path d="M282.249 260.427H92.1963C91.9109 260.427 91.6826 260.198 91.6826 259.913C91.6826 259.627 91.9109 259.399 92.1963 259.399H282.249C282.534 259.399 282.763 259.627 282.763 259.913C282.763 260.198 282.534 260.427 282.249 260.427Z" fill="#7991B6"/>
<path d="M336.243 260.427H296.061C295.776 260.427 295.548 260.198 295.548 259.913C295.548 259.627 295.776 259.399 296.061 259.399H336.243C336.528 259.399 336.757 259.627 336.757 259.913C336.757 260.198 336.528 260.427 336.243 260.427Z" fill="#7991B6"/>
<g opacity="0.4">
<path d="M334.107 42.5474C334.434 41.3485 335.376 40.7205 336.235 41.1202C337.095 41.5769 337.546 42.8899 337.259 44.0888C336.931 45.2877 335.99 45.9157 335.13 45.5161C334.23 45.0594 333.779 43.7463 334.107 42.5474Z" fill="url(#paint1_linear_166_4407)"/>
<path d="M258 47L263.439 37L263.141 36.2735C262.735 35.3761 262.245 34.5214 261.626 33.7949C260.837 32.8547 259.984 32.2564 259.088 32L258 47Z" fill="url(#paint2_linear_166_4407)"/>
<path d="M351 168L356.439 158L356.141 157.274C355.735 156.376 355.245 155.521 354.626 154.795C353.837 153.855 352.984 153.256 352.088 153L351 168Z" fill="url(#paint3_linear_166_4407)"/>
<path d="M92.245 105.108L92.3127 105.179L88.0647 112L86 103.622L86.3046 103.433C88.2678 102.512 90.5526 103.055 92.245 105.108Z" fill="url(#paint4_linear_166_4407)"/>
<path d="M65.4832 164.35L65.5639 164.268L73.7551 168.998L63.9792 171.756L63.7451 171.405C62.5851 169.131 63.1341 166.422 65.4832 164.35Z" fill="url(#paint5_linear_166_4407)"/>
<path d="M56.1337 81.6118C55.6015 84.2379 56.7068 86.9783 58.59 87.7204C60.4731 88.4626 62.4382 86.9212 62.9704 84.295C63.5026 81.6689 62.3972 78.9286 60.5141 78.1864C58.6309 77.4442 56.6659 78.9857 56.1337 81.6118Z" fill="url(#paint6_linear_166_4407)"/>
<path d="M313.102 96.8456C312.693 98.958 313.552 101.07 315.026 101.698C316.541 102.269 318.056 101.07 318.506 99.0151C318.915 96.9027 318.056 94.7904 316.582 94.1624C315.067 93.5344 313.511 94.7904 313.102 96.8456Z" fill="url(#paint7_linear_166_4407)"/>
<path d="M103.102 41.859C102.693 43.9142 103.552 46.0266 105.026 46.5975C106.5 47.1684 108.015 45.9695 108.465 43.9142C108.874 41.859 108.015 39.7467 106.541 39.1187C105.026 38.6049 103.511 39.8037 103.102 41.859Z" fill="url(#paint8_linear_166_4407)"/>
<path d="M183.129 29.6396C182.611 32.3023 183.7 35.0759 185.54 35.8156C187.406 36.5552 189.35 35.002 189.869 32.3762C190.387 29.7135 189.325 26.9399 187.458 26.2002C185.592 25.4236 183.648 26.9768 183.129 29.6396Z" fill="url(#paint9_linear_166_4407)"/>
</g>
<defs>
<radialGradient id="paint0_radial_166_4407" cx="0" cy="0" r="1" gradientUnits="userSpaceOnUse" gradientTransform="translate(249.587 88.0387) scale(206.037 45.081)">
<stop stop-color="white"/>
<stop offset="0.4406" stop-color="#FCFCFE"/>
<stop offset="0.7939" stop-color="#F2F3FA"/>
<stop offset="1" stop-color="#E8EAF6"/>
</radialGradient>
<linearGradient id="paint1_linear_166_4407" x1="337.24" y1="44.1071" x2="333.927" y2="43.2561" gradientUnits="userSpaceOnUse">
<stop stop-color="#2B3381"/>
<stop offset="1" stop-color="#3871B8"/>
</linearGradient>
<linearGradient id="paint2_linear_166_4407" x1="262.5" y1="34.2226" x2="254.608" y2="36.8556" gradientUnits="userSpaceOnUse">
<stop stop-color="#2B3381"/>
<stop offset="1" stop-color="#3871B8"/>
</linearGradient>
<linearGradient id="paint3_linear_166_4407" x1="355.5" y1="155.223" x2="347.608" y2="157.856" gradientUnits="userSpaceOnUse">
<stop stop-color="#2B3381"/>
<stop offset="1" stop-color="#3871B8"/>
</linearGradient>
<linearGradient id="paint4_linear_166_4407" x1="90.2021" y1="102.674" x2="84.3534" y2="107.592" gradientUnits="userSpaceOnUse">
<stop stop-color="#F04930"/>
<stop offset="1" stop-color="#F47D45"/>
</linearGradient>
<linearGradient id="paint5_linear_166_4407" x1="62.6992" y1="166.849" x2="68.7147" y2="173.537" gradientUnits="userSpaceOnUse">
<stop stop-color="#F04930"/>
<stop offset="1" stop-color="#F47D45"/>
</linearGradient>
<linearGradient id="paint6_linear_166_4407" x1="62.9747" y1="84.3057" x2="55.8582" y2="82.8643" gradientUnits="userSpaceOnUse">
<stop stop-color="#30BDD1"/>
<stop offset="1" stop-color="#267D90"/>
</linearGradient>
<linearGradient id="paint7_linear_166_4407" x1="318.5" y1="98.9856" x2="312.887" y2="97.8487" gradientUnits="userSpaceOnUse">
<stop stop-color="#F9A23A"/>
<stop offset="1" stop-color="#FCB351"/>
</linearGradient>
<linearGradient id="paint8_linear_166_4407" x1="108.415" y1="43.9507" x2="102.886" y2="42.831" gradientUnits="userSpaceOnUse">
<stop stop-color="#2B3381"/>
<stop offset="1" stop-color="#3871B8"/>
</linearGradient>
<linearGradient id="paint9_linear_166_4407" x1="189.882" y1="32.3663" x2="182.87" y2="30.9781" gradientUnits="userSpaceOnUse">
<stop stop-color="#F04930"/>
<stop offset="1" stop-color="#F47D45"/>
</linearGradient>
</defs>
</svg>
