<svg width="303" height="255" viewBox="0 0 303 255" fill="none" xmlns="http://www.w3.org/2000/svg">
<g opacity="0.7">
<path d="M246.227 186.458C226.42 191.944 189.003 230.169 212.204 248.1C235.401 266.027 304.699 170.265 246.227 186.458Z" fill="url(#paint0_radial_168_9414)"/>
</g>
<g opacity="0.25">
<path d="M251.581 180.659C167.613 197.755 192.807 241.406 136.784 251.688C61.1962 265.557 25.7478 152.306 73.1381 82.4177C111.005 26.567 176.334 8.92121 234.216 31.8563C315.97 64.2583 317.858 167.163 251.581 180.659Z" fill="#F26724"/>
</g>
<path d="M180.869 4.88398L184.641 1.79387L184.46 1.54907C184.203 1.23605 183.898 0.943086 183.504 0.67822C182.998 0.337103 182.443 0.112368 181.869 0L180.869 4.88398Z" fill="url(#paint1_linear_168_9414)"/>
<path fill-rule="evenodd" clip-rule="evenodd" d="M272.219 66.8868L264.627 54.6026L279.068 54.1772L272.219 66.8868Z" fill="url(#paint2_linear_168_9414)"/>
<path d="M271.524 64.2101L263.667 51.5005L278.614 51.0591L271.524 64.2101ZM264.182 51.7774L271.508 63.6322L278.12 51.3641L264.182 51.7774Z" fill="#1E1917"/>
<path fill-rule="evenodd" clip-rule="evenodd" d="M80.1393 17.9228L68.9565 15.7196L71.1618 4.55103L82.3446 6.75022L80.1393 17.9228Z" fill="url(#paint3_linear_168_9414)"/>
<path d="M82.9631 17.0719L71.5835 14.8326L73.8249 3.46338L85.2045 5.70271L82.9631 17.0719ZM71.8205 14.6761L82.8065 16.8392L84.9715 5.86323L73.9855 3.70015L71.8205 14.6761Z" fill="#1E1917"/>
<mask id="mask0_168_9414" style="mask-type:luminance" maskUnits="userSpaceOnUse" x="0" y="36" width="303" height="217">
<path d="M37.7219 36.7764L188.955 38.3816L279.771 122.673L303 156.749L279.771 252.852H0L2.41009 170.37L37.7219 36.7764Z" fill="white"/>
</mask>
<g mask="url(#mask0_168_9414)">
<path d="M280.719 179.455C280.442 179.455 280.161 179.371 279.92 179.195C279.309 178.753 279.172 177.898 279.614 177.288L290.235 159.478H235.98L221.612 179.002C221.105 179.564 220.242 179.604 219.68 179.106C219.117 178.601 219.073 177.738 219.579 177.176L234.353 157.199C234.614 156.91 234.984 156.745 235.369 156.745H292.906C293.42 156.745 293.89 157.03 294.123 157.488C294.356 157.945 294.312 158.495 294.015 158.908L281.828 178.886C281.562 179.259 281.145 179.455 280.719 179.455Z" fill="url(#paint4_linear_168_9414)"/>
<path d="M298.128 160.618H232.079C230.698 160.618 229.577 159.498 229.577 158.114C229.577 156.733 230.698 155.609 232.079 155.609H298.128C299.51 155.609 300.634 156.729 300.634 158.114C300.63 159.494 299.51 160.618 298.128 160.618Z" fill="#1E1917"/>
<path d="M142.251 199.023C141.641 199.023 141.083 198.61 140.926 197.988C140.745 197.258 141.191 196.515 141.922 196.331L220.266 176.763C220.374 176.738 220.487 176.722 220.595 176.722H280.723C281.478 176.722 282.089 177.332 282.089 178.087C282.089 178.841 281.478 179.451 280.723 179.451H220.764L142.581 198.979C142.472 199.011 142.36 199.023 142.251 199.023Z" fill="url(#paint5_linear_168_9414)"/>
<path d="M226.5 174.387C227.705 170.646 232.393 161.091 237.844 163.852C243.383 166.661 244.974 177.79 245.379 183.492L244.528 183.621C244.102 178.027 242.479 167.328 237.446 164.659C232.931 162.267 228.288 171.381 227.223 174.652C225.335 180.459 225.006 186.988 225.002 187.092C224.99 187.305 224.809 187.482 224.596 187.482C224.383 187.482 224.223 187.313 224.231 187.096C224.255 186.659 224.624 180.218 226.5 174.387Z" fill="white"/>
<path d="M265.708 181.899L267.443 236.237L268.56 242.474L247.456 242.458L254.08 180.386L259.309 181.711L265.708 181.899Z" fill="#1E1917"/>
<path d="M254.08 180.386L251.83 233.986L247.456 242.458L200.523 242.426L204.512 231.907L208.513 185.038L254.08 180.386Z" fill="url(#paint6_linear_168_9414)"/>
<path d="M259.715 181.659L259.305 240.716L247.456 242.458L251.83 233.986L254.08 180.386L259.715 181.659Z" fill="#1E1917"/>
<path d="M221.206 187.237C221.214 187.995 220.64 188.625 219.921 188.649C219.202 188.673 218.611 188.08 218.599 187.325C218.587 186.567 219.161 185.933 219.88 185.908C220.599 185.884 221.198 186.478 221.206 187.237Z" fill="#1E1917"/>
<path d="M243.813 186.081C243.792 187.028 243.041 187.819 242.134 187.847C241.226 187.875 240.503 187.136 240.519 186.193C240.535 185.246 241.286 184.452 242.198 184.419C243.11 184.387 243.833 185.13 243.813 186.081Z" fill="#1E1917"/>
<path d="M221.66 175.41C222.608 171.525 223.849 166.393 227.38 163.9C229.404 162.472 232.043 162.933 234.678 164.422C241.567 168.315 242.555 185.182 242.591 185.896C242.603 186.109 242.439 186.282 242.226 186.282C242.013 186.282 241.832 186.105 241.82 185.892C241.812 185.724 240.824 168.756 234.333 165.092C231.955 163.748 229.537 163.262 227.79 164.599C224.315 167.255 222.62 174.335 222.483 174.985C221.202 181.141 220.274 187.289 220.27 187.397C220.258 187.61 220.077 187.787 219.864 187.787C219.651 187.787 219.491 187.618 219.503 187.401C219.531 186.964 220.17 181.526 221.66 175.41Z" fill="white"/>
<path d="M236.731 218.872C238.073 216.573 238.555 213.744 237.856 210.918C236.458 205.244 230.842 201.744 225.311 203.105C222.463 203.807 220.198 205.665 218.86 208.073L236.731 218.872Z" fill="white"/>
<path d="M217.587 214.37C217.639 214.859 217.711 215.349 217.832 215.838C219.23 221.513 224.845 225.012 230.376 223.652C230.947 223.512 231.489 223.315 232.011 223.086L217.587 214.37Z" fill="#8C79B7"/>
<path d="M201.411 183.581C196.844 181.286 192.952 189.292 191.956 192.426C190.401 197.31 190.112 202.7 190.092 203.065C190.084 203.241 190.22 203.386 190.397 203.386C190.574 203.386 190.727 203.237 190.735 203.061C190.739 202.973 190.996 197.511 192.558 192.647C193.438 189.906 197.298 182.273 201.078 184.259C205.296 186.479 206.685 195.424 207.055 200.099L207.77 199.991C207.416 195.215 206.055 185.913 201.411 183.581Z" fill="white"/>
<path d="M221.652 197.346L216.237 241.707L233.891 241.659L232.935 236.446L231.381 198.574L226.026 198.434L221.652 197.346Z" fill="#1E1917"/>
<path d="M167.063 233.047L163.758 241.856L216.237 241.707L219.872 234.608L221.652 197.346L170.329 201.403L167.063 233.047Z" fill="url(#paint7_linear_168_9414)"/>
<path d="M219.873 234.608L216.237 241.707L226.143 240.219L226.368 198.394L221.652 197.346L219.873 234.608Z" fill="#32757F"/>
<path d="M186.452 201.865C185.85 201.897 185.372 202.647 185.384 203.546C185.396 204.441 185.894 205.14 186.497 205.111C187.099 205.079 187.577 204.333 187.565 203.434C187.553 202.539 187.055 201.833 186.452 201.865Z" fill="#1E1917"/>
<path d="M205.111 200.031C204.347 200.071 203.725 201.014 203.713 202.138C203.705 203.257 204.311 204.128 205.066 204.088C205.826 204.048 206.452 203.113 206.464 201.993C206.48 200.87 205.874 199.991 205.111 200.031Z" fill="#1E1917"/>
<path d="M192.663 183.653C189.718 185.748 188.69 190.046 187.911 193.297C186.682 198.414 186.163 202.964 186.147 203.334C186.139 203.51 186.276 203.655 186.453 203.655C186.629 203.655 186.782 203.506 186.79 203.33C186.794 203.241 187.553 198.097 188.606 192.944C188.718 192.402 190.116 186.47 193.012 184.239C194.47 183.12 196.491 183.517 198.487 184.632C203.926 187.674 204.801 201.865 204.809 202.005C204.821 202.186 204.97 202.33 205.151 202.33C205.328 202.33 205.464 202.186 205.456 202.009C205.42 201.411 204.548 187.309 198.772 184.071C196.559 182.835 194.35 182.453 192.663 183.653Z" fill="white"/>
<path d="M202.676 241.647L189.417 241.711L189.244 215.389L202.508 216.693L202.676 241.647Z" fill="#1E1917"/>
<path d="M189.417 241.711L150.462 241.856L150.301 216.027L189.244 215.477L189.417 241.711Z" fill="url(#paint8_linear_168_9414)"/>
<path d="M175.386 241.775L162.922 241.795L162.894 235.246L175.354 235.226L175.386 241.775Z" fill="#1E1917"/>
<path d="M198.84 241.667L194.474 241.687L194.322 217.7L198.692 218.166L198.84 241.667Z" fill="white"/>
<path d="M160.195 222.54L152.752 222.572L152.731 217.925L160.171 217.311L160.195 222.54Z" fill="white"/>
<path d="M269.789 244.532H142.251C141.496 244.532 140.886 243.918 140.886 243.164V197.659C140.886 196.904 141.496 196.294 142.251 196.294H190.389L280.434 176.755C280.88 176.658 281.338 176.787 281.667 177.1C281.992 177.413 282.145 177.866 282.069 178.316L271.135 243.393C271.026 244.047 270.456 244.532 269.789 244.532ZM143.617 241.799H268.632L279.036 179.849L190.823 198.991C190.726 199.011 190.63 199.019 190.534 199.019H143.617V241.799Z" fill="url(#paint9_linear_168_9414)"/>
<path d="M190.533 244.532C189.778 244.532 189.168 243.918 189.168 243.164V197.659C189.168 196.904 189.778 196.294 190.533 196.294C191.285 196.294 191.899 196.904 191.899 197.659V243.164C191.903 243.918 191.289 244.532 190.533 244.532Z" fill="url(#paint10_linear_168_9414)"/>
<path d="M157.74 243.846C157.367 243.846 157.057 243.541 157.057 243.164V197.659C157.057 197.282 157.367 196.977 157.74 196.977C158.118 196.977 158.423 197.282 158.423 197.659V243.164C158.419 243.541 158.118 243.846 157.74 243.846Z" fill="url(#paint11_linear_168_9414)"/>
<path d="M174.137 243.846C173.759 243.846 173.454 243.541 173.454 243.164V197.659C173.454 197.282 173.759 196.977 174.137 196.977C174.515 196.977 174.82 197.282 174.82 197.659V243.164C174.82 243.541 174.515 243.846 174.137 243.846Z" fill="url(#paint12_linear_168_9414)"/>
<path d="M206.93 243.846C206.557 243.846 206.247 243.541 206.247 243.164V194.473C206.247 194.095 206.557 193.79 206.93 193.79C207.308 193.79 207.613 194.095 207.613 194.473V243.164C207.613 243.541 207.308 243.846 206.93 243.846Z" fill="url(#paint13_linear_168_9414)"/>
<path d="M223.331 243.846C222.953 243.846 222.648 243.541 222.648 243.164V190.829C222.648 190.451 222.953 190.146 223.331 190.146C223.708 190.146 224.014 190.451 224.014 190.829V243.164C224.014 243.541 223.708 243.846 223.331 243.846Z" fill="url(#paint14_linear_168_9414)"/>
<path d="M239.727 243.846C239.35 243.846 239.044 243.541 239.044 243.164V187.165C239.044 186.787 239.35 186.482 239.727 186.482C240.105 186.482 240.41 186.787 240.41 187.165V243.164C240.41 243.541 240.105 243.846 239.727 243.846Z" fill="url(#paint15_linear_168_9414)"/>
<path d="M256.124 243.846C255.746 243.846 255.441 243.541 255.441 243.164V183.573C255.441 183.196 255.746 182.891 256.124 182.891C256.502 182.891 256.807 183.196 256.807 183.573V243.164C256.807 243.541 256.502 243.846 256.124 243.846Z" fill="url(#paint16_linear_168_9414)"/>
<path d="M272.525 226.325C272.147 226.325 271.842 226.02 271.842 225.643V179.869C271.842 179.492 272.147 179.187 272.525 179.187C272.902 179.187 273.207 179.492 273.207 179.869V225.647C273.203 226.02 272.898 226.325 272.525 226.325Z" fill="url(#paint17_linear_168_9414)"/>
<path d="M274.798 214.053H143.388C143.011 214.053 142.705 213.748 142.705 213.37C142.705 212.993 143.011 212.688 143.388 212.688H274.798C275.172 212.688 275.481 212.993 275.481 213.37C275.477 213.744 275.172 214.053 274.798 214.053Z" fill="url(#paint18_linear_168_9414)"/>
<path d="M277.244 199.477H190.533C190.156 199.477 189.851 199.172 189.851 198.795C189.851 198.418 190.156 198.113 190.533 198.113H277.24C277.618 198.113 277.923 198.418 277.923 198.795C277.927 199.172 277.622 199.477 277.244 199.477Z" fill="url(#paint19_linear_168_9414)"/>
<path d="M271.846 229.76H143.388C143.011 229.76 142.705 229.455 142.705 229.078C142.705 228.701 143.011 228.396 143.388 228.396H271.846C272.223 228.396 272.529 228.701 272.529 229.078C272.525 229.455 272.223 229.76 271.846 229.76Z" fill="url(#paint20_linear_168_9414)"/>
<path d="M278.674 295.499C278.634 295.499 278.594 295.495 278.55 295.491C277.799 295.423 277.24 294.761 277.309 294.01L279.297 271.701L263.17 256.909C262.736 256.511 262.607 255.881 262.848 255.348L268.54 242.606C268.845 241.92 269.649 241.611 270.344 241.92C271.035 242.225 271.344 243.035 271.035 243.722L265.74 255.564L281.643 270.144C281.956 270.433 282.117 270.846 282.081 271.272L280.032 294.255C279.968 294.965 279.373 295.499 278.674 295.499Z" fill="url(#paint21_linear_168_9414)"/>
<path d="M250.484 295.499C250.444 295.499 250.404 295.495 250.36 295.491C249.609 295.423 249.054 294.761 249.119 294.01L251.111 271.701L234.984 256.913C234.55 256.516 234.417 255.886 234.658 255.352L240.35 242.61C240.655 241.924 241.455 241.615 242.154 241.924C242.84 242.229 243.15 243.04 242.844 243.726L237.55 255.569L253.453 270.148C253.766 270.437 253.927 270.851 253.891 271.276L251.842 294.259C251.778 294.965 251.183 295.499 250.484 295.499Z" fill="url(#paint22_linear_168_9414)"/>
<path d="M174.783 60.0204L206.058 282.34C207.368 291.662 200.845 299.243 191.509 299.243H147.003L146.999 299.211H90.8282C87.1327 298.994 83.5858 297.614 80.6014 295.419C76.3717 292.321 73.2787 287.605 72.5396 282.336L41.2647 60.0164C39.9553 50.6938 46.4866 43.113 55.8136 43.113H155.475C164.814 43.1171 173.47 50.6979 174.783 60.0204Z" fill="#1E1917"/>
<path d="M181.222 60.0204L212.497 282.34C213.807 291.662 207.283 299.243 197.948 299.243H153.442L153.438 299.211H97.271C93.5756 298.994 90.0287 297.614 87.0442 295.419C82.8145 292.321 79.7216 287.605 78.9825 282.336L47.7076 60.0164C46.3981 50.6938 52.9295 43.113 62.2565 43.113H161.918C171.257 43.1171 179.913 50.6979 181.222 60.0204Z" fill="url(#paint23_linear_168_9414)"/>
<path d="M177.463 60.0203L208.738 282.344C209.758 289.604 204.693 295.491 197.422 295.491H97.7572C90.4908 295.491 83.7707 289.604 82.7464 282.344L51.4715 60.0203C50.4512 52.7606 55.5164 46.8733 62.7828 46.8733H162.448C169.722 46.8693 176.442 52.7565 177.463 60.0203Z" fill="url(#paint24_linear_168_9414)"/>
<path d="M128.622 49.0605H97.5966C96.9057 49.0605 96.4237 49.6224 96.5201 50.3126C96.6165 51.0029 97.2592 51.5647 97.9501 51.5647H128.98C129.671 51.5647 130.153 51.0029 130.056 50.3126C129.956 49.6224 129.313 49.0605 128.622 49.0605Z" fill="#1E1917"/>
<path d="M67.9886 63.2308L67.3901 62.7051L70.9611 58.5515L71.5636 59.0772L67.9886 63.2308Z" fill="#1E1917"/>
<path d="M71.6197 63.2308L66.8799 59.0772L67.3338 58.5515L72.0736 62.7051L71.6197 63.2308Z" fill="#1E1917"/>
<path d="M166.015 62.6368H159.347L159.242 61.8904H165.91L166.015 62.6368Z" fill="#1E1917"/>
<path d="M201.359 60.4217H181.938L156.097 42.7278H170.188C171.582 42.7278 172.984 43.2575 173.944 44.1444L201.359 60.4217Z" fill="url(#paint25_linear_168_9414)"/>
<path d="M156.097 42.7239H139.777L162.516 60.4218H181.938L156.097 42.7239Z" fill="url(#paint26_linear_168_9414)"/>
<path d="M162.516 60.4218H143.095L120.914 42.7239H139.777L162.516 60.4218Z" fill="url(#paint27_linear_168_9414)"/>
<path d="M202.564 67.0837C203.339 71.3737 199.358 74.825 193.747 74.6203C188.489 74.4277 183.837 70.9323 183.106 66.871L181.941 60.4219H201.363L202.564 67.0837Z" fill="url(#paint28_linear_168_9414)"/>
<path d="M183.227 67.5452C183.934 71.458 180.427 74.6324 175.39 74.6324H174.205C169.168 74.6324 164.512 71.462 163.806 67.5452L162.516 60.4219H181.937L183.227 67.5452Z" fill="url(#paint29_linear_168_9414)"/>
<path d="M163.806 67.5452C164.513 71.458 161.006 74.6324 155.969 74.6324H154.784C149.747 74.6324 145.091 71.458 144.384 67.5452L143.095 60.4219H162.516L163.806 67.5452Z" fill="url(#paint30_linear_168_9414)"/>
<path d="M65.4539 60.4217H84.8752L66.1287 42.7278H50.1499C48.756 42.7278 46.7798 43.9638 49.9771 46.8412L65.4539 60.4217Z" fill="url(#paint31_linear_168_9414)"/>
<path d="M66.1287 42.7239L84.8751 60.4218H104.296L85.7066 42.7239H66.1287Z" fill="url(#paint32_linear_168_9414)"/>
<path d="M104.296 60.4218H123.718L103.027 42.7239H85.7065L104.296 60.4218Z" fill="url(#paint33_linear_168_9414)"/>
<path d="M120.914 42.7239H103.027L123.718 60.4218H143.135L120.914 42.7239Z" fill="url(#paint34_linear_168_9414)"/>
<path d="M66.659 67.0837C67.4343 71.3737 72.6642 74.825 78.2033 74.6203C83.3931 74.4277 86.7752 70.9323 86.0442 66.871L84.8793 60.4219H65.458L66.659 67.0837Z" fill="url(#paint35_linear_168_9414)"/>
<path d="M86.1646 67.5452C86.8716 71.458 91.5271 74.6324 96.5642 74.6324H97.7491C102.786 74.6324 106.293 71.462 105.586 67.5452L104.297 60.4219H84.8752L86.1646 67.5452Z" fill="url(#paint36_linear_168_9414)"/>
<path d="M105.586 67.5452C106.293 71.458 110.948 74.6324 115.985 74.6324H117.17C122.207 74.6324 125.714 71.458 125.007 67.5452L123.718 60.4219H104.296L105.586 67.5452Z" fill="url(#paint37_linear_168_9414)"/>
<path d="M125.003 67.5452C125.71 71.458 130.366 74.6324 135.403 74.6324H136.588C141.625 74.6324 145.131 71.458 144.424 67.5452L143.135 60.4219H123.718L125.003 67.5452Z" fill="url(#paint38_linear_168_9414)"/>
<path d="M76.7652 178.115C78.7254 174.355 82.5093 163.515 76.2551 161.429C69.8965 159.31 60.1437 166.529 55.4561 170.546L56.0064 171.297C60.6257 167.384 70.0732 160.51 75.9418 162.348C81.2038 163.993 77.7252 174.467 76.0181 177.762C72.9894 183.613 68.2255 188.818 68.1492 188.902C67.9925 189.075 67.9965 189.344 68.1572 189.508C68.3179 189.673 68.5709 189.665 68.7276 189.496C69.0409 189.147 73.7084 183.978 76.7652 178.115Z" fill="white"/>
<path d="M35.2596 147.699L10.3956 169.595L4.76001 173.468L20.775 189.633L45.2414 155.465L40.2606 152.459L35.2596 147.699Z" fill="#1E1917"/>
<path d="M45.2415 155.465L23.9645 179.857L20.7751 189.633L68.3904 237.706L73.4436 226.67L88.2254 206.042L45.2415 155.465Z" fill="url(#paint39_linear_168_9414)"/>
<path d="M39.9914 152.11L13.127 179.231L20.775 189.633L23.9643 179.857L45.2413 155.465L39.9914 152.11Z" fill="#32757F"/>
<path d="M70.6839 192.145C69.8524 192.952 69.6033 194.071 70.1255 194.645C70.6437 195.223 71.7363 195.038 72.5678 194.236C73.3992 193.433 73.6563 192.309 73.1341 191.732C72.6119 191.154 71.5153 191.338 70.6839 192.145Z" fill="#1E1917"/>
<path d="M54.8015 173.564C53.7893 174.596 53.5001 176.02 54.1588 176.747C54.8136 177.473 56.1632 177.236 57.1795 176.209C58.1957 175.181 58.493 173.749 57.8342 173.018C57.1755 172.288 55.8178 172.533 54.8015 173.564Z" fill="#1E1917"/>
<path d="M79.6495 182.606C81.9149 178.934 84.9155 174.09 84.1483 169.491C83.7105 166.854 81.3526 165.181 78.2115 164.29C69.9971 161.962 56.2957 173.994 55.7173 174.507C55.5446 174.66 55.5366 174.917 55.6972 175.077C55.8619 175.242 56.131 175.246 56.3038 175.093C56.4403 174.973 70.222 162.861 77.9584 165.06C80.7943 165.867 82.9995 167.352 83.3008 169.699C83.8952 174.379 79.7418 181.049 79.3482 181.643C75.5925 187.293 71.5717 192.667 71.4953 192.751C71.3387 192.923 71.3427 193.192 71.5034 193.357C71.664 193.521 71.9211 193.513 72.0738 193.345C72.3871 193 76.0825 188.381 79.6495 182.606Z" fill="white"/>
<path d="M84.3693 182.63C85.0803 178.448 85.3574 166.97 78.7618 166.902C72.0578 166.834 64.9922 176.694 61.7627 181.951L62.5138 182.497C65.7112 177.356 72.596 167.922 78.7418 167.873C84.2528 167.829 84.1564 178.861 83.5459 182.521C82.4573 189.019 79.517 195.432 79.4728 195.536C79.3764 195.745 79.4648 196.001 79.6696 196.11C79.8745 196.218 80.1155 196.134 80.2079 195.925C80.4047 195.496 83.2607 189.147 84.3693 182.63Z" fill="white"/>
<path d="M43.1005 170.313L14.3562 221.457L10.1787 226.867L30.3833 237.353L54.9822 174.652L49.3225 173.315L43.1005 170.313Z" fill="#1E1917"/>
<path d="M54.9822 174.652L30.4195 227.067L30.3833 237.353L75.3153 260.673L76.7413 248.622L96.2791 201.776L54.9822 174.652Z" fill="url(#paint40_linear_168_9414)"/>
<path d="M48.9569 173.066L19.9114 229.792L30.3832 237.353L30.4194 227.067L54.9821 174.652L48.9569 173.066Z" fill="#C23B27"/>
<path d="M83.0317 197.562C82.6461 198.281 82.8831 199.172 83.5579 199.553C84.2327 199.934 85.0963 199.661 85.482 198.943C85.8716 198.225 85.6386 197.33 84.9598 196.948C84.2849 196.567 83.4213 196.84 83.0317 197.562Z" fill="#1E1917"/>
<path d="M61.9715 185.206C61.5176 186.121 61.8469 187.253 62.6985 187.73C63.5501 188.212 64.6105 187.863 65.0644 186.952C65.5223 186.037 65.201 184.905 64.3414 184.42C63.4898 183.938 62.4254 184.291 61.9715 185.206Z" fill="#1E1917"/>
<path d="M88.4904 186.021C89.5187 181.831 90.8884 176.301 88.7515 172.159C87.5264 169.784 84.7708 168.913 81.5052 169.029C72.9694 169.326 63.6183 184.977 63.2247 185.644C63.1082 185.84 63.1765 186.085 63.3813 186.193C63.5862 186.298 63.8473 186.221 63.9638 186.021C64.0561 185.86 73.4595 170.117 81.4971 169.84C84.4455 169.74 87.0002 170.474 88.0044 172.621C90.0047 176.891 88.1008 184.512 87.9039 185.202C86.0602 191.732 83.8831 198.076 83.8349 198.181C83.7385 198.389 83.8269 198.646 84.0317 198.755C84.2366 198.863 84.4776 198.779 84.57 198.57C84.7668 198.136 86.8716 192.61 88.4904 186.021Z" fill="white"/>
<path d="M52.4074 220.116C52.2708 217.251 53.2188 214.301 55.2955 211.942C59.4609 207.206 66.5787 206.652 71.194 210.701C73.572 212.788 74.8132 215.694 74.8935 218.668L52.4074 220.116Z" fill="white"/>
<path d="M72.9734 225.329C72.6802 225.771 72.3668 226.204 72.0053 226.614C67.8399 231.349 60.7221 231.903 56.1068 227.85C55.6288 227.432 55.2111 226.975 54.8254 226.493L72.9734 225.329Z" fill="white"/>
<path d="M177.258 115.221C168.321 108.078 148.775 101.617 125.341 104.92C101.903 108.222 93.5115 116 92.3828 122.477C91.254 128.954 95.7047 139.168 118.902 140.797C142.099 142.426 154.109 139.87 160.03 137.811C165.951 135.752 182.632 119.515 177.258 115.221Z" fill="url(#paint41_linear_168_9414)"/>
<path d="M192.341 180.358C197.968 202.615 200.68 251.652 171.45 271.485C147.377 287.818 107.51 307.727 102.067 310.705C102.067 310.705 84.8993 293.489 92.9329 264.494C92.9329 264.494 143.717 245.993 150.072 235.856C153.02 231.149 153.571 207.993 153.764 190.13C153.956 172.264 188.376 164.679 192.341 180.358Z" fill="#6FC284"/>
<path d="M145.34 160.549C142.488 164.434 132.189 176.437 136.853 206.729C141.516 237.02 170.992 332.452 182.134 363C182.134 363 185.243 310.962 217.117 320.802C217.117 320.802 198.977 254.786 195.35 243.653C191.722 232.521 172.028 175.567 165.549 170.129C159.074 164.691 149.634 154.702 145.34 160.549Z" fill="#6FC284"/>
<path d="M183.122 338.456L185.91 337.452C185.577 336.525 152.454 244.52 146.586 213.671C140.85 183.517 147.602 172.4 147.674 172.292L145.188 170.683C144.878 171.156 137.676 182.678 143.677 214.225C149.586 245.303 182.789 337.529 183.122 338.456Z" fill="white"/>
<path d="M179.933 110.911C182.432 111.252 188.256 112.011 192.08 113.76C195.904 115.506 197.555 116.574 198.72 132.109C199.885 147.643 196.129 181.879 197.812 194.308C197.812 194.308 187.706 192.366 183.56 195.99C179.415 199.613 163.826 195.556 153.241 190.941C142.661 186.326 135.298 179.552 135.298 179.552C135.298 179.552 146.895 129.263 151.948 120.458C157.001 111.654 165.959 109.001 179.933 110.911Z" fill="url(#paint42_linear_168_9414)"/>
<path d="M173.739 182.281C177.684 182.281 179.917 180.856 180.058 180.764L179.652 180.146C179.6 180.178 174.378 183.477 165.75 179.728L165.457 180.406C168.718 181.819 171.502 182.281 173.739 182.281Z" fill="#1E1917"/>
<path d="M168.308 104.257L168.328 113.893C168.919 114.639 172.976 116.73 180.126 113.937L180.098 100.417C180.098 100.413 175.635 102.231 168.308 104.257Z" fill="#F9AF9A"/>
<path d="M168.308 105.433L168.324 100.413C168.324 100.413 172.787 102.519 180.11 104.863L180.122 112.155C179.909 112.203 171.859 113.387 168.308 105.433Z" fill="#ED7662"/>
<path d="M177.455 109.567C174.06 109.535 167.879 104.903 166.513 101.797C166.027 100.69 166.292 97.8283 166.296 96.3435C166.308 90.9939 169.224 87.8717 172.683 86.6598C174.141 86.1541 178.8 86.2665 180.142 86.5434C184.552 87.4784 185.195 91.7283 185.211 96.2311C185.231 101.284 183.44 109.623 177.455 109.567Z" fill="#F9AF9A"/>
<path d="M180.146 101.572L179.953 100.858C180.897 100.605 181.99 100.1 182.114 99.7304C182.122 99.7063 182.138 99.6621 182.066 99.5739C180.242 97.2623 180.853 94.1963 180.881 94.0638L180.897 93.9755L180.953 93.9073C181.01 93.8351 182.419 92.1415 184.785 92.9442L184.548 93.6465C182.897 93.0886 181.845 94.0398 181.588 94.3086C181.508 94.8143 181.202 97.2864 182.648 99.1164C182.914 99.4495 182.885 99.7625 182.821 99.9672C182.508 100.894 180.536 101.468 180.146 101.572Z" fill="#1E1917"/>
<path d="M170.815 88.8709C173.86 92.1095 182.685 88.0843 184.874 91.2989C187.208 94.7301 192.538 85.7206 186.673 81.4787C181.572 77.7907 178.105 80.961 173.189 82.2573C168.272 83.5535 166.734 81.5269 163.689 85.7367C160.644 89.9424 163.203 97.752 166.023 102.283C167.256 104.269 164.858 94.3127 168.485 94.0559C172.108 93.791 170.815 88.8709 170.815 88.8709Z" fill="#1E1917"/>
<path d="M192.132 114.792C203.451 116.477 217.711 119.158 231.236 138.566C244.76 157.973 246.937 169.555 242.953 174.788C238.968 180.021 224.909 183.653 212.586 165.843C200.262 148.033 195.454 135.953 192.935 130.218C190.417 124.483 185.328 113.78 192.132 114.792Z" fill="url(#paint43_linear_168_9414)"/>
<path d="M163.605 176.803L176.892 176.867L176.896 130.961L163.605 132.269V176.803Z" fill="#1E1917"/>
<path d="M176.892 176.867L215.928 177.011L215.924 131.603L176.896 131.053L176.892 176.867Z" fill="url(#paint44_linear_168_9414)"/>
<path d="M190.951 176.935L203.439 176.955L203.472 170.39L190.983 170.37L190.951 176.935Z" fill="#1E1917"/>
<path d="M167.449 176.823L171.823 176.843L171.899 140.123L167.521 140.592L167.449 176.823Z" fill="url(#paint45_linear_168_9414)"/>
<path d="M206.175 140.552L213.634 140.588L213.654 135.929L206.199 135.311L206.175 140.552Z" fill="white"/>
<path d="M223.728 149.309C212.501 149.325 182.914 151.704 180.066 159.791C177.218 167.877 181.684 181.446 196.306 184.909C210.927 188.372 235.759 182.301 241.844 175.691C247.93 169.081 243.326 149.285 223.728 149.309Z" fill="url(#paint46_linear_168_9414)"/>
<path d="M192.835 166.32C195.551 171.068 195.145 176.405 191.931 178.243C188.718 180.077 183.91 177.718 181.194 172.97C178.479 168.223 178.885 162.885 182.098 161.047C185.308 159.213 190.116 161.573 192.835 166.32Z" fill="#1E1917"/>
<path d="M223.387 150.372L223.487 149.638C211.264 147.932 191.353 153.097 191.156 153.149L191.345 153.864C191.542 153.815 211.312 148.687 223.387 150.372Z" fill="#1E1917"/>
<path d="M233.172 181.394L232.915 180.699C217.94 186.278 204.52 185.323 204.388 185.315L204.331 186.053C204.464 186.065 218.049 187.028 233.172 181.394Z" fill="#1E1917"/>
<path d="M173.128 154.871C173.128 154.871 175.768 154.117 177.551 153.743C179.334 153.37 180.56 153.603 182.841 155.638C185.123 157.672 190.911 159.783 191.582 162.717C192.253 165.65 194.305 175.426 186.46 178.211C178.615 180.993 166.027 175.996 170.305 172.786C170.305 172.786 165.223 171.273 168.594 167.324C168.594 167.324 164.183 163.447 168.702 161.244C168.706 161.248 163.336 155.517 173.128 154.871Z" fill="#F9AF9A"/>
<path d="M168.706 161.248C169.835 161.473 170.964 161.473 172.084 161.42C173.205 161.344 174.322 161.216 175.418 160.855C174.277 160.626 173.157 160.626 172.04 160.682C170.923 160.758 169.811 160.891 168.706 161.248Z" fill="#1E1917"/>
<path d="M168.602 167.344C170.108 167.637 171.618 167.669 173.129 167.613C173.884 167.569 174.635 167.512 175.386 167.392C176.133 167.276 176.884 167.119 177.603 166.85C176.077 166.786 174.595 166.814 173.096 166.878C171.598 166.955 170.104 167.051 168.602 167.344Z" fill="#1E1917"/>
<path d="M170.269 172.83C170.71 173.147 171.204 173.36 171.711 173.52C172.217 173.685 172.743 173.781 173.273 173.837C174.33 173.933 175.43 173.833 176.414 173.388C175.876 173.307 175.366 173.283 174.856 173.235C174.35 173.191 173.844 173.155 173.341 173.099C172.333 173.018 171.337 172.89 170.269 172.83Z" fill="#1E1917"/>
<path d="M117.998 139.444C113.359 149.658 98.9945 175.615 90.4467 174.872C81.8989 174.134 71.3628 164.474 74.2308 149.738C77.0988 135.002 92.8648 114.896 101.401 112.083C109.936 109.27 126.096 121.618 117.998 139.444Z" fill="url(#paint47_linear_168_9414)"/>
<path d="M89.7519 160.561C86.5384 156.131 81.5054 154.301 78.5088 156.472C75.5083 158.643 75.681 163.993 78.8945 168.423C82.1079 172.854 87.141 174.684 90.1375 172.513C93.1381 170.341 92.9653 164.992 89.7519 160.561Z" fill="#1E1917"/>
<path d="M101.071 167.516C101.2 167.356 114.114 151.359 117.596 139.529L116.885 139.32C113.443 151.006 100.625 166.89 100.497 167.051L101.071 167.516Z" fill="#1E1917"/>
<path d="M77.1871 142.222C77.2353 142.097 81.8988 129.48 93.1499 118.155L92.6237 117.633C81.2521 129.079 76.5364 141.844 76.4922 141.973L77.1871 142.222Z" fill="#1E1917"/>
<path d="M81.5774 183.545C81.5774 183.545 84.112 182.489 85.7388 181.671C87.3656 180.852 88.177 179.905 88.6952 176.895C89.2134 173.885 92.4188 168.624 91.1133 165.915C89.8078 163.202 85.313 154.281 77.4401 156.99C69.5712 159.699 62.847 171.449 68.1934 171.297C68.1934 171.297 65.1687 175.643 70.2621 176.63C70.2621 176.63 69.2338 182.409 74.1383 181.318C74.1423 181.314 73.5157 189.139 81.5774 183.545Z" fill="#F9AF9A"/>
<path d="M74.1423 181.314C75.2309 180.904 76.1789 180.314 77.0987 179.68C78.0065 179.026 78.8822 178.328 79.6293 177.441C78.5488 177.842 77.5928 178.436 76.6729 179.074C75.7651 179.732 74.8854 180.431 74.1423 181.314Z" fill="#1E1917"/>
<path d="M70.2581 176.61C71.6157 175.904 72.8449 175.049 74.062 174.178C75.271 173.291 76.452 172.392 77.6048 171.393C76.8737 171.63 76.1909 171.975 75.5321 172.348C74.8693 172.717 74.2427 173.143 73.6282 173.58C72.4111 174.479 71.2502 175.446 70.2581 176.61Z" fill="#1E1917"/>
<path d="M68.1331 171.285C68.9324 170.57 69.6313 169.852 70.3704 169.154C70.7279 168.797 71.1015 168.456 71.471 168.106C71.8406 167.749 72.2262 167.416 72.5957 167.019C71.5473 167.284 70.6275 167.89 69.8603 168.624C69.4787 168.997 69.1292 169.399 68.836 169.848C68.5347 170.285 68.2817 170.763 68.1331 171.285Z" fill="#1E1917"/>
<path d="M191.421 233.44L192.128 233.219C191.068 229.852 182.492 206.452 182.403 206.215L181.708 206.468C181.793 206.704 190.365 230.089 191.421 233.44Z" fill="#1E1917"/>
<path d="M174.044 94.2165L173.683 93.5703C175.27 92.6794 176.579 92.3704 177.579 92.6634C178.35 92.8881 178.64 93.3898 178.672 93.4459L178.021 93.8031C178.009 93.7871 177.177 92.4547 174.044 94.2165Z" fill="#1E1917"/>
<path d="M175.262 96.0464C175.117 96.5882 175.35 97.126 175.784 97.2423C176.218 97.3587 176.688 97.0136 176.836 96.4678C176.981 95.926 176.748 95.3883 176.314 95.2719C175.88 95.1555 175.41 95.5047 175.262 96.0464Z" fill="#1E1917"/>
<path d="M181.937 96.0464C181.793 96.5882 182.026 97.126 182.46 97.2423C182.893 97.3587 183.363 97.0136 183.512 96.4678C183.657 95.926 183.424 95.3883 182.99 95.2719C182.556 95.1555 182.086 95.5047 181.937 96.0464Z" fill="#1E1917"/>
<path d="M170.365 96.9012C170.2 98.8516 168.485 100.3 166.529 100.136C164.577 99.9712 163.127 98.2576 163.291 96.3032C163.456 94.3528 165.171 92.9041 167.127 93.0686C169.08 93.2372 170.53 94.9508 170.365 96.9012Z" fill="#F9AF9A"/>
<path d="M166.794 99.2087C166.272 99.2087 165.77 98.9198 165.702 98.8797L166.079 98.2416C166.248 98.3419 166.674 98.5185 166.915 98.4543C166.983 98.4342 167.027 98.3981 167.063 98.3299C167.124 98.2175 167.124 98.2175 166.935 98.0168C166.694 97.76 166.324 97.3707 166.453 96.6002C166.537 96.0825 166.79 95.7093 166.995 95.4123C167.3 94.9669 167.3 94.9669 166.979 94.7421C166.38 94.3207 165.224 95.328 164.866 95.7133L164.32 95.2117C164.505 95.011 166.164 93.2653 167.405 94.1361C168.325 94.7823 167.895 95.4123 167.61 95.8297C167.433 96.0905 167.244 96.3634 167.188 96.7206C167.12 97.1299 167.272 97.2905 167.477 97.5112C167.682 97.7279 168.027 98.0971 167.722 98.675C167.59 98.9238 167.381 99.0964 167.12 99.1686C167.007 99.1967 166.899 99.2087 166.794 99.2087Z" fill="#1E1917"/>
<path d="M182.138 103.403C182.138 103.403 179.073 104.903 176.804 102.973C176.804 102.973 177.868 106.212 179.576 106.308C181.283 106.408 182.138 103.403 182.138 103.403Z" fill="#1E1917"/>
</g>
<path d="M258.831 26.4746L259.385 24.9135C258.638 24.5362 258.064 24.1389 257.666 23.7095C257.265 23.2841 256.987 22.7263 256.831 22.0401C256.674 21.3538 256.71 20.5953 256.943 19.7646L258.622 20.0295C258.446 20.9124 258.442 21.6026 258.606 22.1043C258.847 22.8146 259.265 23.3122 259.855 23.5931L261.623 18.6209C261.024 18.2717 260.454 17.7902 259.916 17.1761C259.518 16.7227 259.269 16.2009 259.177 15.615C259.08 15.0291 259.144 14.4231 259.369 13.7971C259.763 12.6854 260.478 11.927 261.51 11.5176C262.201 11.2407 263.085 11.2367 264.157 11.5016L264.423 10.7551L265.342 11.0802L265.077 11.8266C265.957 12.236 266.584 12.7577 266.957 13.3918C267.439 14.2024 267.572 15.1254 267.359 16.1648L265.656 15.8358C265.78 15.1896 265.756 14.6519 265.579 14.2225C265.403 13.7931 265.077 13.4359 264.607 13.147L263.005 17.6497C263.724 18.1273 264.19 18.4644 264.402 18.665C264.812 19.0503 265.117 19.4516 265.314 19.869C265.511 20.2863 265.62 20.7318 265.632 21.2134C265.648 21.6949 265.567 22.1805 265.391 22.6741C265.005 23.7577 264.338 24.5362 263.394 25.0138C262.446 25.4914 261.418 25.5636 260.305 25.2265L259.743 26.8077L258.831 26.4746ZM260.775 23.9222C261.41 24.0627 262.004 23.9784 262.563 23.6694C263.121 23.3604 263.519 22.8708 263.752 22.2046C263.953 21.6387 263.977 21.1331 263.816 20.6876C263.659 20.2422 263.205 19.7365 262.462 19.1667L260.775 23.9222ZM263.696 12.8018C263.053 12.6774 262.49 12.7497 262 13.0185C261.51 13.2874 261.169 13.6927 260.976 14.2305C260.787 14.7642 260.775 15.2619 260.948 15.7274C261.117 16.1929 261.522 16.6584 262.157 17.124L263.696 12.8018Z" fill="url(#paint48_linear_168_9414)"/>
<path d="M240.274 102.68C239.374 101.299 238.96 99.8988 239.024 98.4782C239.093 97.0575 239.783 95.9218 241.105 95.063C242.322 94.2724 243.607 94.0557 244.969 94.4049C246.331 94.754 247.556 95.7693 248.649 97.4508C249.713 99.0882 250.131 100.609 249.898 102.018C249.665 103.426 248.962 104.51 247.781 105.276C246.608 106.035 245.351 106.236 244.005 105.87C242.664 105.501 241.418 104.438 240.274 102.68ZM242.238 96.6562C241.647 97.0375 241.322 97.6114 241.262 98.3779C241.201 99.1444 241.615 100.208 242.503 101.572C243.31 102.812 244.077 103.559 244.8 103.808C245.528 104.056 246.178 103.992 246.761 103.615C247.359 103.226 247.689 102.652 247.749 101.885C247.809 101.123 247.399 100.059 246.516 98.7069C245.704 97.4589 244.933 96.7084 244.21 96.4596C243.487 96.2108 242.828 96.271 242.238 96.6562ZM254.449 115.402L251.786 88.1283L253.714 86.8762L256.417 114.121L254.449 115.402ZM259.41 104.715C258.506 103.326 258.088 101.921 258.156 100.505C258.225 99.0882 258.924 97.9485 260.257 97.0856C261.474 96.295 262.76 96.0783 264.121 96.4275C265.483 96.7766 266.708 97.7919 267.801 99.4734C268.865 101.111 269.283 102.632 269.05 104.04C268.817 105.449 268.11 106.537 266.921 107.311C265.748 108.07 264.491 108.266 263.141 107.897C261.792 107.524 260.546 106.464 259.41 104.715ZM261.386 98.6829C260.787 99.0721 260.458 99.65 260.398 100.413C260.338 101.179 260.751 102.243 261.639 103.607C262.438 104.839 263.205 105.581 263.933 105.834C264.66 106.087 265.314 106.027 265.897 105.65C266.503 105.256 266.837 104.674 266.897 103.912C266.957 103.145 266.547 102.086 265.664 100.734C264.852 99.4855 264.081 98.735 263.358 98.4862C262.635 98.2294 261.976 98.2976 261.386 98.6829Z" fill="url(#paint49_linear_168_9414)"/>
<path d="M298.766 252.852H51.5518V254.236H298.766V252.852Z" fill="#1E1917"/>
<path d="M11.4519 73.2637L11.5362 73.3439L18.168 66.5055L9.10607 64.2261L8.95343 64.6916C8.23844 67.6734 9.08197 70.9601 11.4519 73.2637Z" fill="url(#paint50_linear_168_9414)"/>
<path d="M30.0778 15.3864C29.8248 16.181 28.9772 16.6224 28.1819 16.3696C27.3866 16.1168 26.9447 15.27 27.1978 14.4754C27.4509 13.6808 28.2984 13.2393 29.0937 13.4922C29.8891 13.745 30.3269 14.5918 30.0778 15.3864Z" fill="url(#paint51_linear_168_9414)"/>
<path d="M100.199 31.736C99.9464 32.5306 99.0988 32.972 98.3035 32.7192C97.5082 32.4664 97.0663 31.6196 97.3194 30.825C97.5724 30.0304 98.42 29.5889 99.2153 29.8418C100.011 30.0906 100.452 30.9414 100.199 31.736Z" fill="url(#paint52_linear_168_9414)"/>
<path d="M192.425 27.2171C192.759 26.4145 193.683 26.0333 194.49 26.3663C195.297 26.6994 195.675 27.6225 195.342 28.4291C195.008 29.2317 194.084 29.613 193.277 29.2799C192.47 28.9428 192.088 28.0198 192.425 27.2171Z" fill="url(#paint53_linear_168_9414)"/>
<path d="M226.415 14.4592C226.677 13.8332 227.396 13.5402 228.018 13.7971C228.645 14.0579 228.938 14.7723 228.681 15.3983C228.42 16.0244 227.705 16.3173 227.078 16.0605C226.456 15.8036 226.158 15.0853 226.415 14.4592Z" fill="url(#paint54_linear_168_9414)"/>
<path d="M287.784 122.99C288.046 122.364 288.761 122.071 289.387 122.328C290.014 122.589 290.307 123.303 290.05 123.93C289.789 124.556 289.074 124.849 288.447 124.592C287.821 124.331 287.523 123.613 287.784 122.99Z" fill="url(#paint55_linear_168_9414)"/>
<path d="M232.264 55.6542C232.782 54.4061 234.22 53.8122 235.469 54.3339C236.723 54.8556 237.313 56.2883 236.791 57.5364C236.273 58.7844 234.835 59.3784 233.586 58.8567C232.336 58.339 231.746 56.9063 232.264 55.6542Z" fill="url(#paint56_linear_168_9414)"/>
<defs>
<radialGradient id="paint0_radial_168_9414" cx="0" cy="0" r="1" gradientUnits="userSpaceOnUse" gradientTransform="translate(236.984 217.475) scale(32.5159 32.4861)">
<stop stop-color="#B7D4F0"/>
<stop offset="1" stop-color="#E8F1FA"/>
</radialGradient>
<linearGradient id="paint1_linear_168_9414" x1="184.08" y1="0.844279" x2="179.931" y2="3.29411" gradientUnits="userSpaceOnUse">
<stop stop-color="#2B3381"/>
<stop offset="1" stop-color="#3871B8"/>
</linearGradient>
<linearGradient id="paint2_linear_168_9414" x1="263.881" y1="57.4013" x2="277.259" y2="60.9668" gradientUnits="userSpaceOnUse">
<stop stop-color="#F9A23A"/>
<stop offset="1" stop-color="#FCB351"/>
</linearGradient>
<linearGradient id="paint3_linear_168_9414" x1="70.0586" y1="10.1357" x2="81.2405" y2="12.3408" gradientUnits="userSpaceOnUse">
<stop stop-color="#F04930"/>
<stop offset="1" stop-color="#F47D45"/>
</linearGradient>
<linearGradient id="paint4_linear_168_9414" x1="120.884" y1="287.171" x2="301.498" y2="130.094" gradientUnits="userSpaceOnUse">
<stop stop-color="#D3D2CD"/>
<stop offset="1" stop-color="#ACB0B9"/>
</linearGradient>
<linearGradient id="paint5_linear_168_9414" x1="110.652" y1="275.406" x2="291.266" y2="118.328" gradientUnits="userSpaceOnUse">
<stop stop-color="#D3D2CD"/>
<stop offset="1" stop-color="#ACB0B9"/>
</linearGradient>
<linearGradient id="paint6_linear_168_9414" x1="200.524" y1="211.422" x2="254.081" y2="211.422" gradientUnits="userSpaceOnUse">
<stop stop-color="#F04930"/>
<stop offset="1" stop-color="#F47D45"/>
</linearGradient>
<linearGradient id="paint7_linear_168_9414" x1="163.759" y1="219.6" x2="221.652" y2="219.6" gradientUnits="userSpaceOnUse">
<stop stop-color="#267D90"/>
<stop offset="1" stop-color="#30BDD1"/>
</linearGradient>
<linearGradient id="paint8_linear_168_9414" x1="150.303" y1="228.667" x2="189.416" y2="228.667" gradientUnits="userSpaceOnUse">
<stop stop-color="#2B3381"/>
<stop offset="1" stop-color="#3871B8"/>
</linearGradient>
<linearGradient id="paint9_linear_168_9414" x1="124.426" y1="291.243" x2="305.04" y2="134.166" gradientUnits="userSpaceOnUse">
<stop stop-color="#D3D2CD"/>
<stop offset="1" stop-color="#ACB0B9"/>
</linearGradient>
<linearGradient id="paint10_linear_168_9414" x1="117.764" y1="283.583" x2="298.378" y2="126.507" gradientUnits="userSpaceOnUse">
<stop stop-color="#D3D2CD"/>
<stop offset="1" stop-color="#ACB0B9"/>
</linearGradient>
<linearGradient id="paint11_linear_168_9414" x1="103.656" y1="267.361" x2="284.269" y2="110.284" gradientUnits="userSpaceOnUse">
<stop stop-color="#D3D2CD"/>
<stop offset="1" stop-color="#ACB0B9"/>
</linearGradient>
<linearGradient id="paint12_linear_168_9414" x1="110.71" y1="275.472" x2="291.324" y2="118.395" gradientUnits="userSpaceOnUse">
<stop stop-color="#D3D2CD"/>
<stop offset="1" stop-color="#ACB0B9"/>
</linearGradient>
<linearGradient id="paint13_linear_168_9414" x1="124.03" y1="290.785" x2="304.642" y2="133.711" gradientUnits="userSpaceOnUse">
<stop stop-color="#D3D2CD"/>
<stop offset="1" stop-color="#ACB0B9"/>
</linearGradient>
<linearGradient id="paint14_linear_168_9414" x1="130.179" y1="297.86" x2="310.794" y2="140.781" gradientUnits="userSpaceOnUse">
<stop stop-color="#D3D2CD"/>
<stop offset="1" stop-color="#ACB0B9"/>
</linearGradient>
<linearGradient id="paint15_linear_168_9414" x1="136.325" y1="304.926" x2="316.939" y2="147.848" gradientUnits="userSpaceOnUse">
<stop stop-color="#D3D2CD"/>
<stop offset="1" stop-color="#ACB0B9"/>
</linearGradient>
<linearGradient id="paint16_linear_168_9414" x1="142.489" y1="312.014" x2="323.103" y2="154.936" gradientUnits="userSpaceOnUse">
<stop stop-color="#D3D2CD"/>
<stop offset="1" stop-color="#ACB0B9"/>
</linearGradient>
<linearGradient id="paint17_linear_168_9414" x1="144.287" y1="314.078" x2="324.9" y2="157.003" gradientUnits="userSpaceOnUse">
<stop stop-color="#D3D2CD"/>
<stop offset="1" stop-color="#ACB0B9"/>
</linearGradient>
<linearGradient id="paint18_linear_168_9414" x1="122.257" y1="288.75" x2="302.872" y2="131.673" gradientUnits="userSpaceOnUse">
<stop stop-color="#D3D2CD"/>
<stop offset="1" stop-color="#ACB0B9"/>
</linearGradient>
<linearGradient id="paint19_linear_168_9414" x1="125.702" y1="292.711" x2="306.316" y2="135.634" gradientUnits="userSpaceOnUse">
<stop stop-color="#D3D2CD"/>
<stop offset="1" stop-color="#ACB0B9"/>
</linearGradient>
<linearGradient id="paint20_linear_168_9414" x1="129.407" y1="296.972" x2="310.022" y2="139.895" gradientUnits="userSpaceOnUse">
<stop stop-color="#D3D2CD"/>
<stop offset="1" stop-color="#ACB0B9"/>
</linearGradient>
<linearGradient id="paint21_linear_168_9414" x1="177.673" y1="352.47" x2="358.288" y2="195.392" gradientUnits="userSpaceOnUse">
<stop stop-color="#D3D2CD"/>
<stop offset="1" stop-color="#ACB0B9"/>
</linearGradient>
<linearGradient id="paint22_linear_168_9414" x1="165.546" y1="338.526" x2="346.161" y2="181.448" gradientUnits="userSpaceOnUse">
<stop stop-color="#D3D2CD"/>
<stop offset="1" stop-color="#ACB0B9"/>
</linearGradient>
<linearGradient id="paint23_linear_168_9414" x1="63.3395" y1="171.181" x2="194.275" y2="152.768" gradientUnits="userSpaceOnUse">
<stop stop-color="#D3D2CD"/>
<stop offset="1" stop-color="#ACB0B9"/>
</linearGradient>
<linearGradient id="paint24_linear_168_9414" x1="51.3441" y1="171.181" x2="208.869" y2="171.181" gradientUnits="userSpaceOnUse">
<stop stop-color="#CDE8D7"/>
<stop offset="1" stop-color="#F7F7DC"/>
</linearGradient>
<linearGradient id="paint25_linear_168_9414" x1="156.096" y1="51.5735" x2="201.357" y2="51.5735" gradientUnits="userSpaceOnUse">
<stop stop-color="#F04930"/>
<stop offset="1" stop-color="#F47D45"/>
</linearGradient>
<linearGradient id="paint26_linear_168_9414" x1="160.632" y1="60.8979" x2="161.167" y2="38.6917" gradientUnits="userSpaceOnUse">
<stop stop-color="#D3D2CD"/>
<stop offset="1" stop-color="#ACB0B9"/>
</linearGradient>
<linearGradient id="paint27_linear_168_9414" x1="120.916" y1="51.5736" x2="162.516" y2="51.5736" gradientUnits="userSpaceOnUse">
<stop stop-color="#F04930"/>
<stop offset="1" stop-color="#F47D45"/>
</linearGradient>
<linearGradient id="paint28_linear_168_9414" x1="181.937" y1="67.5259" x2="202.659" y2="67.5259" gradientUnits="userSpaceOnUse">
<stop stop-color="#F04930"/>
<stop offset="1" stop-color="#F47D45"/>
</linearGradient>
<linearGradient id="paint29_linear_168_9414" x1="162.516" y1="67.5259" x2="183.316" y2="67.5259" gradientUnits="userSpaceOnUse">
<stop stop-color="#D3D2CD"/>
<stop offset="1" stop-color="#ACB0B9"/>
</linearGradient>
<linearGradient id="paint30_linear_168_9414" x1="143.096" y1="67.5259" x2="163.895" y2="67.5259" gradientUnits="userSpaceOnUse">
<stop stop-color="#F04930"/>
<stop offset="1" stop-color="#F47D45"/>
</linearGradient>
<linearGradient id="paint31_linear_168_9414" x1="48.2534" y1="51.5735" x2="84.8753" y2="51.5735" gradientUnits="userSpaceOnUse">
<stop stop-color="#F04930"/>
<stop offset="1" stop-color="#F47D45"/>
</linearGradient>
<linearGradient id="paint32_linear_168_9414" x1="85.0307" y1="59.0778" x2="85.5653" y2="36.8716" gradientUnits="userSpaceOnUse">
<stop stop-color="#D3D2CD"/>
<stop offset="1" stop-color="#ACB0B9"/>
</linearGradient>
<linearGradient id="paint33_linear_168_9414" x1="85.7072" y1="51.5736" x2="123.716" y2="51.5736" gradientUnits="userSpaceOnUse">
<stop stop-color="#F04930"/>
<stop offset="1" stop-color="#F47D45"/>
</linearGradient>
<linearGradient id="paint34_linear_168_9414" x1="122.878" y1="59.989" x2="123.413" y2="37.7828" gradientUnits="userSpaceOnUse">
<stop stop-color="#D3D2CD"/>
<stop offset="1" stop-color="#ACB0B9"/>
</linearGradient>
<linearGradient id="paint35_linear_168_9414" x1="65.455" y1="67.5259" x2="86.1416" y2="67.5259" gradientUnits="userSpaceOnUse">
<stop stop-color="#F04930"/>
<stop offset="1" stop-color="#F47D45"/>
</linearGradient>
<linearGradient id="paint36_linear_168_9414" x1="84.8754" y1="67.5259" x2="105.675" y2="67.5259" gradientUnits="userSpaceOnUse">
<stop stop-color="#D3D2CD"/>
<stop offset="1" stop-color="#ACB0B9"/>
</linearGradient>
<linearGradient id="paint37_linear_168_9414" x1="104.296" y1="67.5259" x2="125.095" y2="67.5259" gradientUnits="userSpaceOnUse">
<stop stop-color="#F04930"/>
<stop offset="1" stop-color="#F47D45"/>
</linearGradient>
<linearGradient id="paint38_linear_168_9414" x1="123.716" y1="67.5259" x2="144.515" y2="67.5259" gradientUnits="userSpaceOnUse">
<stop stop-color="#D3D2CD"/>
<stop offset="1" stop-color="#ACB0B9"/>
</linearGradient>
<linearGradient id="paint39_linear_168_9414" x1="65.9255" y1="230.004" x2="39.6999" y2="156.028" gradientUnits="userSpaceOnUse">
<stop stop-color="#267D90"/>
<stop offset="1" stop-color="#30BDD1"/>
</linearGradient>
<linearGradient id="paint40_linear_168_9414" x1="30.383" y1="217.662" x2="96.2787" y2="217.662" gradientUnits="userSpaceOnUse">
<stop stop-color="#F04930"/>
<stop offset="1" stop-color="#F47D45"/>
</linearGradient>
<linearGradient id="paint41_linear_168_9414" x1="135.267" y1="198.987" x2="135.267" y2="105.288" gradientUnits="userSpaceOnUse">
<stop stop-color="#2B3381"/>
<stop offset="1" stop-color="#3871B8"/>
</linearGradient>
<linearGradient id="paint42_linear_168_9414" x1="167.124" y1="198.986" x2="167.124" y2="105.288" gradientUnits="userSpaceOnUse">
<stop stop-color="#2B3381"/>
<stop offset="1" stop-color="#3871B8"/>
</linearGradient>
<linearGradient id="paint43_linear_168_9414" x1="216.734" y1="198.986" x2="216.734" y2="105.288" gradientUnits="userSpaceOnUse">
<stop stop-color="#2B3381"/>
<stop offset="1" stop-color="#3871B8"/>
</linearGradient>
<linearGradient id="paint44_linear_168_9414" x1="176.891" y1="154.032" x2="215.929" y2="154.032" gradientUnits="userSpaceOnUse">
<stop stop-color="#F9A23A"/>
<stop offset="1" stop-color="#FCB351"/>
</linearGradient>
<linearGradient id="paint45_linear_168_9414" x1="167.447" y1="158.484" x2="171.9" y2="158.484" gradientUnits="userSpaceOnUse">
<stop stop-color="#F9A23A"/>
<stop offset="1" stop-color="#FCB351"/>
</linearGradient>
<linearGradient id="paint46_linear_168_9414" x1="220.366" y1="203.019" x2="198.993" y2="111.788" gradientUnits="userSpaceOnUse">
<stop stop-color="#2B3381"/>
<stop offset="1" stop-color="#3871B8"/>
</linearGradient>
<linearGradient id="paint47_linear_168_9414" x1="96.9778" y1="198.987" x2="96.9778" y2="105.288" gradientUnits="userSpaceOnUse">
<stop stop-color="#2B3381"/>
<stop offset="1" stop-color="#3871B8"/>
</linearGradient>
<linearGradient id="paint48_linear_168_9414" x1="256.737" y1="18.7777" x2="267.459" y2="18.7777" gradientUnits="userSpaceOnUse">
<stop stop-color="#2B3381"/>
<stop offset="1" stop-color="#3871B8"/>
</linearGradient>
<linearGradient id="paint49_linear_168_9414" x1="239.02" y1="101.142" x2="269.113" y2="101.142" gradientUnits="userSpaceOnUse">
<stop stop-color="#267D90"/>
<stop offset="1" stop-color="#30BDD1"/>
</linearGradient>
<linearGradient id="paint50_linear_168_9414" x1="8.63723" y1="70.4827" x2="15.336" y2="63.7053" gradientUnits="userSpaceOnUse">
<stop stop-color="#2B3381"/>
<stop offset="1" stop-color="#3871B8"/>
</linearGradient>
<linearGradient id="paint51_linear_168_9414" x1="27.1976" y1="14.4767" x2="30.0768" y2="15.3884" gradientUnits="userSpaceOnUse">
<stop stop-color="#30BDD1"/>
<stop offset="1" stop-color="#267D90"/>
</linearGradient>
<linearGradient id="paint52_linear_168_9414" x1="97.3201" y1="30.8245" x2="100.199" y2="31.7361" gradientUnits="userSpaceOnUse">
<stop stop-color="#2B3381"/>
<stop offset="1" stop-color="#3871B8"/>
</linearGradient>
<linearGradient id="paint53_linear_168_9414" x1="195.341" y1="28.4269" x2="192.425" y2="27.2137" gradientUnits="userSpaceOnUse">
<stop stop-color="#30BDD1"/>
<stop offset="1" stop-color="#267D90"/>
</linearGradient>
<linearGradient id="paint54_linear_168_9414" x1="228.683" y1="15.4021" x2="226.418" y2="14.4597" gradientUnits="userSpaceOnUse">
<stop stop-color="#2B3381"/>
<stop offset="1" stop-color="#3871B8"/>
</linearGradient>
<linearGradient id="paint55_linear_168_9414" x1="290.048" y1="123.93" x2="287.783" y2="122.987" gradientUnits="userSpaceOnUse">
<stop stop-color="#2B3381"/>
<stop offset="1" stop-color="#3871B8"/>
</linearGradient>
<linearGradient id="paint56_linear_168_9414" x1="236.795" y1="57.5373" x2="232.266" y2="55.6526" gradientUnits="userSpaceOnUse">
<stop stop-color="#F04930"/>
<stop offset="1" stop-color="#F47D45"/>
</linearGradient>
</defs>
</svg>
